<?xml version="1.0" encoding="UTF-8" standalone="no"?>
<!DOCTYPE svg PUBLIC "-//W3C//DTD SVG 1.1//EN"
 "http://www.w3.org/Graphics/SVG/1.1/DTD/svg11.dtd">
<!-- Generated by graphviz version 2.26.3 (20100126.1600)
 -->
<!-- Title: structs Pages: 1 -->
<svg width="2613pt" height="1635pt"
 viewBox="0.00 0.00 2612.64 1635.35" xmlns="http://www.w3.org/2000/svg" xmlns:xlink="http://www.w3.org/1999/xlink">
<g id="graph1" class="graph" transform="scale(1 1) rotate(0) translate(4 1631.35)">
<title>structs</title>
<polygon fill="white" stroke="white" points="-4,5 -4,-1631.35 2609.64,-1631.35 2609.64,5 -4,5"/>
<!-- page -->
<g id="node1" class="node"><title>page</title>
<polygon fill="none" stroke="black" points="950.643,-1548.35 950.643,-1626.35 1064.64,-1626.35 1064.64,-1548.35 950.643,-1548.35"/>
<text text-anchor="middle" x="1007.64" y="-1609.75" font-family="Times Roman,serif" font-size="14.00">struct page</text>
<polyline fill="none" stroke="black" points="950.643,-1600.35 1064.64,-1600.35 "/>
<text text-anchor="middle" x="1007.64" y="-1583.75" font-family="Times Roman,serif" font-size="14.00">address_space</text>
<polyline fill="none" stroke="black" points="950.643,-1574.35 1064.64,-1574.35 "/>
<text text-anchor="middle" x="1007.64" y="-1557.75" font-family="Times Roman,serif" font-size="14.00">index</text>
</g>
<!-- vma_address -->
<g id="node6" class="node"><title>vma_address</title>
<ellipse fill="none" stroke="black" cx="281.643" cy="-1068.35" rx="243.952" ry="31.1127"/>
<text text-anchor="middle" x="281.643" y="-1073.75" font-family="Times Roman,serif" font-size="14.00">pgoff = page&#45;&gt;index &lt;&lt; PAGE_CACHE_SHIFT </text>
<text text-anchor="middle" x="281.643" y="-1055.75" font-family="Times Roman,serif" font-size="14.00"> vm_start + pgoff &#45; (vm_pgoff &lt;&lt; PAGE_SHIFT)</text>
</g>
<!-- page&#45;&gt;vma_address -->
<g id="edge22" class="edge"><title>page:index&#45;&gt;vma_address</title>
<path fill="none" stroke="black" d="M949.643,-1561.35C773.105,-1561.35 282.894,-1482.62 188.643,-1333.35 157.322,-1283.74 171.02,-1257.31 188.643,-1201.35 199.793,-1165.95 224.097,-1131.76 245.063,-1106.91"/>
<polygon fill="black" stroke="black" points="247.848,-1109.04 251.731,-1099.18 242.549,-1104.47 247.848,-1109.04"/>
</g>
<!-- address_space -->
<g id="node10" class="node"><title>address_space</title>
<polygon fill="none" stroke="black" points="533.643,-1388.35 533.643,-1492.35 709.643,-1492.35 709.643,-1388.35 533.643,-1388.35"/>
<text text-anchor="middle" x="621.643" y="-1475.75" font-family="Times Roman,serif" font-size="14.00">struct address_space</text>
<polyline fill="none" stroke="black" points="533.643,-1466.35 709.643,-1466.35 "/>
<text text-anchor="middle" x="621.643" y="-1449.75" font-family="Times Roman,serif" font-size="14.00">rb_root for linear</text>
<polyline fill="none" stroke="black" points="533.643,-1440.35 709.643,-1440.35 "/>
<text text-anchor="middle" x="621.643" y="-1423.75" font-family="Times Roman,serif" font-size="14.00">list_head for non linear</text>
<polyline fill="none" stroke="black" points="533.643,-1414.35 709.643,-1414.35 "/>
<text text-anchor="middle" x="621.643" y="-1397.75" font-family="Times Roman,serif" font-size="14.00">radix_tree_root</text>
</g>
<!-- page&#45;&gt;address_space -->
<g id="edge6" class="edge"><title>page:mapping&#45;&gt;address_space:address_space</title>
<path fill="none" stroke="black" d="M948.643,-1587.35C835.608,-1587.35 826.664,-1485.79 719.931,-1479.64"/>
<polygon fill="black" stroke="black" points="719.738,-1476.13 709.643,-1479.35 719.54,-1483.13 719.738,-1476.13"/>
<text text-anchor="middle" x="854.143" y="-1516.75" font-family="Times Roman,serif" font-size="14.00">mapping</text>
</g>
<!-- anon_vma_1 -->
<g id="node15" class="node"><title>anon_vma_1</title>
<polygon fill="none" stroke="black" points="1439.64,-1414.35 1439.64,-1466.35 1639.64,-1466.35 1639.64,-1414.35 1439.64,-1414.35"/>
<text text-anchor="middle" x="1539.64" y="-1449.75" font-family="Times Roman,serif" font-size="14.00">struct anon_vma of parent</text>
<polyline fill="none" stroke="black" points="1439.64,-1440.35 1639.64,-1440.35 "/>
<text text-anchor="middle" x="1539.64" y="-1423.75" font-family="Times Roman,serif" font-size="14.00">rb_root</text>
</g>
<!-- page&#45;&gt;anon_vma_1 -->
<g id="edge8" class="edge"><title>page:mapping&#45;&gt;anon_vma_1:anon_vma</title>
<path fill="none" stroke="black" d="M1064.64,-1587.35C1238.17,-1587.35 1261.77,-1458.53 1429.45,-1453.5"/>
<polygon fill="black" stroke="black" points="1429.7,-1457 1439.64,-1453.35 1429.59,-1450 1429.7,-1457"/>
<text text-anchor="middle" x="1295.14" y="-1516.75" font-family="Times Roman,serif" font-size="14.00">mapping</text>
</g>
<!-- task -->
<g id="node2" class="node"><title>task</title>
<polygon fill="none" stroke="black" points="1961.14,-1042.35 1961.14,-1094.35 2100.14,-1094.35 2100.14,-1042.35 1961.14,-1042.35"/>
<text text-anchor="middle" x="2030.64" y="-1077.75" font-family="Times Roman,serif" font-size="14.00">struct task_struct</text>
<polyline fill="none" stroke="black" points="1961.14,-1068.35 2100.14,-1068.35 "/>
<text text-anchor="middle" x="2030.64" y="-1051.75" font-family="Times Roman,serif" font-size="14.00">mm_struct</text>
</g>
<!-- mm_struct -->
<g id="node3" class="node"><title>mm_struct</title>
<polygon fill="none" stroke="black" points="2029.14,-804.35 2029.14,-908.35 2164.14,-908.35 2164.14,-804.35 2029.14,-804.35"/>
<text text-anchor="middle" x="2096.64" y="-891.75" font-family="Times Roman,serif" font-size="14.00">struct mm_struct</text>
<polyline fill="none" stroke="black" points="2029.14,-882.35 2164.14,-882.35 "/>
<text text-anchor="middle" x="2096.64" y="-865.75" font-family="Times Roman,serif" font-size="14.00">pgd_t</text>
<polyline fill="none" stroke="black" points="2029.14,-856.35 2164.14,-856.35 "/>
<text text-anchor="middle" x="2096.64" y="-839.75" font-family="Times Roman,serif" font-size="14.00">rb_root</text>
<polyline fill="none" stroke="black" points="2029.14,-830.35 2164.14,-830.35 "/>
<text text-anchor="middle" x="2096.64" y="-813.75" font-family="Times Roman,serif" font-size="14.00">vm_area_struct</text>
</g>
<!-- task&#45;&gt;mm_struct -->
<g id="edge2" class="edge"><title>task:active_mm&#45;&gt;mm_struct:mm_struct</title>
<path fill="none" stroke="black" d="M2029.64,-1041.35C2029.64,-980.262 1971.25,-904.799 2018.54,-896.166"/>
<polygon fill="black" stroke="black" points="2018.96,-899.644 2028.64,-895.35 2018.39,-892.667 2018.96,-899.644"/>
</g>
<!-- pgd -->
<g id="node4" class="node"><title>pgd</title>
<polygon fill="none" stroke="black" points="2140.64,-675.35 2052.64,-675.35 2052.64,-639.35 2140.64,-639.35 2140.64,-675.35"/>
<text text-anchor="middle" x="2096.64" y="-653.75" font-family="Times Roman,serif" font-size="14.00">page table</text>
</g>
<!-- mm_struct&#45;&gt;pgd -->
<g id="edge4" class="edge"><title>mm_struct:pgd&#45;&gt;pgd</title>
<path fill="none" stroke="black" stroke-dasharray="1,5" d="M2165.64,-869.35C2204.14,-869.35 2141.15,-741.342 2111.14,-684.264"/>
<polygon fill="black" stroke="black" points="2114.24,-682.624 2106.46,-675.425 2108.05,-685.9 2114.24,-682.624"/>
</g>
<!-- vm_area_struct_1 -->
<g id="node13" class="node"><title>vm_area_struct_1</title>
<polygon fill="none" stroke="black" points="2117.64,-990.35 2117.64,-1146.35 2353.64,-1146.35 2353.64,-990.35 2117.64,-990.35"/>
<text text-anchor="middle" x="2235.64" y="-1129.75" font-family="Times Roman,serif" font-size="14.00">struct vm_area_struct of parent</text>
<polyline fill="none" stroke="black" points="2117.64,-1120.35 2353.64,-1120.35 "/>
<text text-anchor="middle" x="2235.64" y="-1103.75" font-family="Times Roman,serif" font-size="14.00">list_head</text>
<polyline fill="none" stroke="black" points="2117.64,-1094.35 2353.64,-1094.35 "/>
<text text-anchor="middle" x="2235.64" y="-1077.75" font-family="Times Roman,serif" font-size="14.00">rb_node/vm_rb</text>
<polyline fill="none" stroke="black" points="2117.64,-1068.35 2353.64,-1068.35 "/>
<text text-anchor="middle" x="2235.64" y="-1051.75" font-family="Times Roman,serif" font-size="14.00">vm_area_struct</text>
<polyline fill="none" stroke="black" points="2117.64,-1042.35 2353.64,-1042.35 "/>
<text text-anchor="middle" x="2235.64" y="-1025.75" font-family="Times Roman,serif" font-size="14.00">vm_area_struct</text>
<polyline fill="none" stroke="black" points="2117.64,-1016.35 2353.64,-1016.35 "/>
<text text-anchor="middle" x="2235.64" y="-999.75" font-family="Times Roman,serif" font-size="14.00">mm_struct</text>
</g>
<!-- mm_struct&#45;&gt;vm_area_struct_1 -->
<g id="edge44" class="edge"><title>mm_struct:mmap&#45;&gt;vm_area_struct_1:vm_area_struct</title>
<path fill="none" stroke="black" d="M2164.64,-817.35C2205.31,-817.35 2174.91,-869.501 2164.64,-908.85 2156.6,-939.655 2146.09,-944.092 2129.64,-971.35 2124.58,-979.741 2120.49,-980.472 2117.64,-989.85 2115.71,-996.228 2110.04,-1092.22 2112.89,-1123.54"/>
<polygon fill="black" stroke="black" points="2109.57,-1124.67 2115.64,-1133.35 2116.31,-1122.78 2109.57,-1124.67"/>
<text text-anchor="middle" x="2162.14" y="-958.75" font-family="Times Roman,serif" font-size="14.00">mmap</text>
</g>
<!-- mm_struct&#45;&gt;vm_area_struct_1 -->
<g id="edge46" class="edge"><title>mm_struct:mm_rb&#45;&gt;vm_area_struct_1:vm_rb</title>
<path fill="none" stroke="black" d="M2028.64,-843.35C1999.53,-843.35 2019.14,-881.333 2028.64,-908.85 2040.16,-942.214 2051.01,-948.183 2077.64,-971.35 2089.66,-981.807 2100.18,-975.854 2108.64,-989.35 2112.96,-996.236 2108.39,-1050.05 2111.42,-1072.04"/>
<polygon fill="black" stroke="black" points="2108.32,-1073.69 2115.64,-1081.35 2114.7,-1070.8 2108.32,-1073.69"/>
<text text-anchor="middle" x="2101.64" y="-958.75" font-family="Times Roman,serif" font-size="14.00">mm_rb</text>
</g>
<!-- address_range -->
<g id="node5" class="node"><title>address_range</title>
<polygon fill="none" stroke="black" points="403.643,-830.35 403.643,-882.35 965.643,-882.35 965.643,-830.35 403.643,-830.35"/>
<text text-anchor="middle" x="684.643" y="-865.75" font-family="Times Roman,serif" font-size="14.00">address range</text>
<polyline fill="none" stroke="black" points="403.643,-856.35 965.643,-856.35 "/>
<text text-anchor="middle" x="414.143" y="-839.75" font-family="Times Roman,serif" font-size="14.00"> </text>
<polyline fill="none" stroke="black" points="424.643,-830.35 424.643,-856.35 "/>
<text text-anchor="middle" x="449.643" y="-839.75" font-family="Times Roman,serif" font-size="14.00">page</text>
<polyline fill="none" stroke="black" points="474.643,-830.35 474.643,-856.35 "/>
<text text-anchor="middle" x="485.143" y="-839.75" font-family="Times Roman,serif" font-size="14.00"> </text>
<polyline fill="none" stroke="black" points="495.643,-830.35 495.643,-856.35 "/>
<text text-anchor="middle" x="544.643" y="-839.75" font-family="Times Roman,serif" font-size="14.00">anon_range</text>
<polyline fill="none" stroke="black" points="593.643,-830.35 593.643,-856.35 "/>
<text text-anchor="middle" x="685.143" y="-839.75" font-family="Times Roman,serif" font-size="14.00">linear mapped file range</text>
<polyline fill="none" stroke="black" points="776.643,-830.35 776.643,-856.35 "/>
<text text-anchor="middle" x="871.143" y="-839.75" font-family="Times Roman,serif" font-size="14.00">non linear mapped range</text>
</g>
<!-- linear_index -->
<g id="node7" class="node"><title>linear_index</title>
<ellipse fill="none" stroke="black" cx="645.643" cy="-657.35" rx="309.212" ry="31.1127"/>
<text text-anchor="middle" x="645.643" y="-662.75" font-family="Times Roman,serif" font-size="14.00">pgoff = (address &#45; vm_start) &gt;&gt; PAGE_CACHE_SHIFT </text>
<text text-anchor="middle" x="645.643" y="-644.75" font-family="Times Roman,serif" font-size="14.00"> pgoff += vm_pgoff &gt;&gt; (PAGE_CACHE_SHIFT &#45; PAGE_SHIFT)</text>
</g>
<!-- address_range&#45;&gt;linear_index -->
<g id="edge26" class="edge"><title>address_range:anon_range&#45;&gt;linear_index</title>
<path fill="none" stroke="black" d="M544.643,-830.35C544.643,-778.673 578.669,-728.703 607.222,-695.868"/>
<polygon fill="black" stroke="black" points="609.919,-698.102 613.963,-688.309 604.695,-693.443 609.919,-698.102"/>
</g>
<!-- address_range&#45;&gt;linear_index -->
<g id="edge28" class="edge"><title>address_range:linear&#45;&gt;linear_index</title>
<path fill="none" stroke="black" d="M685.643,-830.35C685.643,-784.195 671.961,-732.854 660.601,-698.179"/>
<polygon fill="black" stroke="black" points="663.824,-696.782 657.32,-688.419 657.189,-699.013 663.824,-696.782"/>
</g>
<!-- nonlinear_index -->
<g id="node8" class="node"><title>nonlinear_index</title>
<ellipse fill="none" stroke="black" cx="1045.64" cy="-657.35" rx="72.832" ry="18.3848"/>
<text text-anchor="middle" x="1045.64" y="-653.75" font-family="Times Roman,serif" font-size="14.00">pte_to_pgoff</text>
</g>
<!-- address_range&#45;&gt;nonlinear_index -->
<g id="edge30" class="edge"><title>address_range:nonlinear&#45;&gt;nonlinear_index</title>
<path fill="none" stroke="black" d="M966.643,-843.35C1034.12,-843.35 1044.8,-738.376 1045.94,-686.151"/>
<polygon fill="black" stroke="black" points="1049.44,-685.903 1046.05,-675.864 1042.44,-685.825 1049.44,-685.903"/>
</g>
<!-- vma_address&#45;&gt;address_range -->
<g id="edge24" class="edge"><title>vma_address&#45;&gt;address_range:page</title>
<path fill="none" stroke="black" d="M287.008,-1037.09C298.157,-984.359 329.276,-876.826 403.643,-830.35 409.672,-826.582 429.556,-822.627 441.113,-824.004"/>
<polygon fill="black" stroke="black" points="439.311,-827.005 449.643,-829.35 443.028,-821.074 439.311,-827.005"/>
</g>
<!-- linear_index&#45;&gt;page -->
<g id="edge32" class="edge"><title>linear_index&#45;&gt;page:index</title>
<path fill="none" stroke="black" d="M811.017,-683.594C906.414,-709.208 1007.64,-759.263 1007.64,-856.35 1007.64,-1440.35 1007.64,-1440.35 1007.64,-1440.35 1007.64,-1484.79 1007.64,-1498.37 1007.64,-1538.23"/>
<polygon fill="black" stroke="black" points="1004.14,-1538.35 1007.64,-1548.35 1011.14,-1538.35 1004.14,-1538.35"/>
</g>
<!-- nonlinear_index&#45;&gt;page -->
<g id="edge34" class="edge"><title>nonlinear_index&#45;&gt;page:index</title>
<path fill="none" stroke="black" d="M1047.52,-675.984C1050.89,-711.186 1057.64,-789.896 1057.64,-856.35 1057.64,-1440.35 1057.64,-1440.35 1057.64,-1440.35 1057.64,-1490.25 1110.69,-1551.46 1075.8,-1560.27"/>
<polygon fill="black" stroke="black" points="1075.22,-1556.82 1065.64,-1561.35 1075.96,-1563.78 1075.22,-1556.82"/>
</g>
<!-- vm_area_linear -->
<g id="node9" class="node"><title>vm_area_linear</title>
<polygon fill="none" stroke="black" points="197.643,-1202.35 197.643,-1332.35 365.643,-1332.35 365.643,-1202.35 197.643,-1202.35"/>
<text text-anchor="middle" x="281.643" y="-1315.75" font-family="Times Roman,serif" font-size="14.00">struct vm_area_struct</text>
<polyline fill="none" stroke="black" points="197.643,-1306.35 365.643,-1306.35 "/>
<text text-anchor="middle" x="281.643" y="-1289.75" font-family="Times Roman,serif" font-size="14.00">rb_node</text>
<polyline fill="none" stroke="black" points="197.643,-1280.35 365.643,-1280.35 "/>
<text text-anchor="middle" x="281.643" y="-1263.75" font-family="Times Roman,serif" font-size="14.00">vm_start</text>
<polyline fill="none" stroke="black" points="197.643,-1254.35 365.643,-1254.35 "/>
<text text-anchor="middle" x="281.643" y="-1237.75" font-family="Times Roman,serif" font-size="14.00">vm_end</text>
<polyline fill="none" stroke="black" points="197.643,-1228.35 365.643,-1228.35 "/>
<text text-anchor="middle" x="281.643" y="-1211.75" font-family="Times Roman,serif" font-size="14.00">vm_pgoff</text>
</g>
<!-- vm_area_linear&#45;&gt;address_range -->
<g id="edge16" class="edge"><title>vm_area_linear:vm_start&#45;&gt;address_range:t0</title>
<path fill="none" stroke="black" d="M195.643,-1267.35C51.5079,-1267.35 -52.7133,-1108.33 28.6429,-989.35 77.2953,-918.198 297.468,-848.568 393.394,-843.629"/>
<polygon fill="black" stroke="black" points="393.742,-847.121 403.643,-843.35 393.551,-840.124 393.742,-847.121"/>
</g>
<!-- vm_area_linear&#45;&gt;address_range -->
<g id="edge18" class="edge"><title>vm_area_linear:vm_end&#45;&gt;address_range:t1</title>
<path fill="none" stroke="black" d="M366.643,-1241.35C384.773,-1241.35 362.67,-1214.96 374.643,-1201.35 424.207,-1144.99 490.873,-1208.32 534.643,-1147.35 575.596,-1090.31 564.813,-1052.76 534.643,-989.35 502.405,-921.593 435.881,-950.607 403.643,-882.85 393.618,-861.78 387.246,-846.951 403.643,-830.35 408.584,-825.347 455.243,-822.057 475.42,-825.149"/>
<polygon fill="black" stroke="black" points="474.092,-828.39 484.643,-829.35 476.993,-822.02 474.092,-828.39"/>
</g>
<!-- vm_area_linear&#45;&gt;vma_address -->
<g id="edge20" class="edge"><title>vm_area_linear:vm_pgoff&#45;&gt;vma_address</title>
<path fill="none" stroke="black" d="M281.643,-1202.35C281.643,-1171.24 281.643,-1136.06 281.643,-1109.55"/>
<polygon fill="black" stroke="black" points="285.143,-1109.49 281.643,-1099.49 278.143,-1109.49 285.143,-1109.49"/>
</g>
<!-- address_space&#45;&gt;vm_area_linear -->
<g id="edge10" class="edge"><title>address_space:i_mmap&#45;&gt;vm_area_linear:linear</title>
<path fill="none" stroke="black" d="M531.643,-1453.35C443.817,-1453.35 422.018,-1407.3 374.643,-1333.35 367.808,-1322.68 374.937,-1307.51 373.789,-1299.26"/>
<polygon fill="black" stroke="black" points="375.793,-1296.39 365.643,-1293.35 371.685,-1302.05 375.793,-1296.39"/>
<text text-anchor="middle" x="424.643" y="-1356.75" font-family="Times Roman,serif" font-size="14.00">i_mmap</text>
</g>
<!-- vm_area_non_linear -->
<g id="node11" class="node"><title>vm_area_non_linear</title>
<polygon fill="none" stroke="black" points="383.643,-1241.35 383.643,-1293.35 551.643,-1293.35 551.643,-1241.35 383.643,-1241.35"/>
<text text-anchor="middle" x="467.643" y="-1276.75" font-family="Times Roman,serif" font-size="14.00">struct vm_area_struct</text>
<polyline fill="none" stroke="black" points="383.643,-1267.35 551.643,-1267.35 "/>
<text text-anchor="middle" x="467.643" y="-1250.75" font-family="Times Roman,serif" font-size="14.00">list_head</text>
</g>
<!-- address_space&#45;&gt;vm_area_non_linear -->
<g id="edge12" class="edge"><title>address_space:list_head&#45;&gt;vm_area_non_linear:nonlinear</title>
<path fill="none" stroke="black" d="M532.643,-1427.35C491.094,-1427.35 580.847,-1270.9 551.643,-1241.35 546.492,-1236.14 497.646,-1232.74 476.895,-1236.04"/>
<polygon fill="black" stroke="black" points="475.228,-1232.95 467.643,-1240.35 478.185,-1239.3 475.228,-1232.95"/>
<text text-anchor="middle" x="568.643" y="-1356.75" font-family="Times Roman,serif" font-size="14.00">nonlinear</text>
</g>
<!-- find_get_page -->
<g id="node12" class="node"><title>find_get_page</title>
<ellipse fill="none" stroke="black" cx="774.643" cy="-1267.35" rx="205.061" ry="18.3848"/>
<text text-anchor="middle" x="774.643" y="-1263.75" font-family="Times Roman,serif" font-size="14.00">function find_get_page with page offset</text>
</g>
<!-- address_space&#45;&gt;find_get_page -->
<g id="edge14" class="edge"><title>address_space:page_tree&#45;&gt;find_get_page</title>
<path fill="none" stroke="black" stroke-dasharray="1,5" d="M710.643,-1401.35C756.93,-1401.35 769.771,-1335.44 773.313,-1296.07"/>
<polygon fill="black" stroke="black" points="776.812,-1296.22 774.071,-1285.98 769.832,-1295.69 776.812,-1296.22"/>
<text text-anchor="middle" x="797.143" y="-1356.75" font-family="Times Roman,serif" font-size="14.00">page_tree</text>
</g>
<!-- vm_area_struct_1&#45;&gt;mm_struct -->
<g id="edge52" class="edge"><title>vm_area_struct_1:vm_mm&#45;&gt;mm_struct:mm_struct</title>
<path fill="none" stroke="black" d="M2234.64,-989.35C2234.64,-958.109 2207.96,-960.655 2189.64,-935.35 2179.94,-921.951 2183.04,-904.792 2174.48,-898.15"/>
<polygon fill="black" stroke="black" points="2175.22,-894.723 2164.64,-895.35 2173.3,-901.455 2175.22,-894.723"/>
<text text-anchor="middle" x="2257.14" y="-958.75" font-family="Times Roman,serif" font-size="14.00">vm_mm</text>
</g>
<!-- anon_vma_chain_1 -->
<g id="node14" class="node"><title>anon_vma_chain_1</title>
<polygon fill="none" stroke="black" points="1964.64,-1202.35 1964.64,-1332.35 2208.64,-1332.35 2208.64,-1202.35 1964.64,-1202.35"/>
<text text-anchor="middle" x="2086.64" y="-1315.75" font-family="Times Roman,serif" font-size="14.00">struct anon_vma_chain of parent</text>
<polyline fill="none" stroke="black" points="1964.64,-1306.35 2208.64,-1306.35 "/>
<text text-anchor="middle" x="2086.64" y="-1289.75" font-family="Times Roman,serif" font-size="14.00">rb_node</text>
<polyline fill="none" stroke="black" points="1964.64,-1280.35 2208.64,-1280.35 "/>
<text text-anchor="middle" x="2086.64" y="-1263.75" font-family="Times Roman,serif" font-size="14.00">anon_vma</text>
<polyline fill="none" stroke="black" points="1964.64,-1254.35 2208.64,-1254.35 "/>
<text text-anchor="middle" x="2086.64" y="-1237.75" font-family="Times Roman,serif" font-size="14.00">list_head</text>
<polyline fill="none" stroke="black" points="1964.64,-1228.35 2208.64,-1228.35 "/>
<text text-anchor="middle" x="2086.64" y="-1211.75" font-family="Times Roman,serif" font-size="14.00">vm_area_struct</text>
</g>
<!-- vm_area_struct_1&#45;&gt;anon_vma_chain_1 -->
<g id="edge42" class="edge"><title>vm_area_struct_1:anon_vma_chains&#45;&gt;anon_vma_chain_1:same_vma</title>
<path fill="none" stroke="black" d="M2117.64,-1107.35C2111.18,-1107.35 2106.15,-1180.36 2108.64,-1183.35 2137.55,-1218.1 2179.74,-1167.1 2208.64,-1201.85 2216.98,-1211.87 2222.61,-1228.77 2217.78,-1236.82"/>
<polygon fill="black" stroke="black" points="2216.05,-1233.78 2208.64,-1241.35 2219.16,-1240.05 2216.05,-1233.78"/>
<text text-anchor="middle" x="2170.14" y="-1170.75" font-family="Times Roman,serif" font-size="14.00">anon_vma_chains</text>
</g>
<!-- sorted_by_adr -->
<g id="node16" class="node"><title>sorted_by_adr</title>
<ellipse fill="none" stroke="black" cx="2295.64" cy="-856.35" rx="97.0803" ry="18.3848"/>
<text text-anchor="middle" x="2295.64" y="-852.75" font-family="Times Roman,serif" font-size="14.00">sorted by address</text>
</g>
<!-- vm_area_struct_1&#45;&gt;sorted_by_adr -->
<g id="edge48" class="edge"><title>vm_area_struct_1:vm_prev&#45;&gt;sorted_by_adr</title>
<path fill="none" stroke="black" stroke-dasharray="1,5" d="M2354.64,-1055.35C2425.64,-1055.35 2352.4,-937.469 2314.89,-883.162"/>
<polygon fill="black" stroke="black" points="2317.59,-880.908 2308.99,-874.715 2311.85,-884.917 2317.59,-880.908"/>
<text text-anchor="middle" x="2396.14" y="-958.75" font-family="Times Roman,serif" font-size="14.00">vm_prev</text>
</g>
<!-- sorted_by_adr_1 -->
<g id="node17" class="node"><title>sorted_by_adr_1</title>
<ellipse fill="none" stroke="black" cx="2507.64" cy="-856.35" rx="97.0803" ry="18.3848"/>
<text text-anchor="middle" x="2507.64" y="-852.75" font-family="Times Roman,serif" font-size="14.00">sorted by address</text>
</g>
<!-- vm_area_struct_1&#45;&gt;sorted_by_adr_1 -->
<g id="edge50" class="edge"><title>vm_area_struct_1:vm_next&#45;&gt;sorted_by_adr_1</title>
<path fill="none" stroke="black" stroke-dasharray="1,5" d="M2354.64,-1029.35C2431.17,-1029.35 2478.63,-933.198 2497.83,-884.26"/>
<polygon fill="black" stroke="black" points="2501.12,-885.455 2501.39,-874.864 2494.57,-882.971 2501.12,-885.455"/>
<text text-anchor="middle" x="2492.64" y="-958.75" font-family="Times Roman,serif" font-size="14.00">vm_next</text>
</g>
<!-- anon_vma_chain_1&#45;&gt;vm_area_struct_1 -->
<g id="edge40" class="edge"><title>anon_vma_chain_1:vma&#45;&gt;vm_area_struct_1:vm_area_struct</title>
<path fill="none" stroke="black" d="M2209.64,-1215.35C2239.09,-1215.35 2236.61,-1186.11 2235.8,-1156.4"/>
<polygon fill="black" stroke="black" points="2239.3,-1156.29 2235.64,-1146.35 2232.3,-1156.4 2239.3,-1156.29"/>
<text text-anchor="middle" x="2250.64" y="-1170.75" font-family="Times Roman,serif" font-size="14.00">vma</text>
</g>
<!-- anon_vma_chain_1&#45;&gt;anon_vma_1 -->
<g id="edge38" class="edge"><title>anon_vma_chain_1:anon_vma&#45;&gt;anon_vma_1:anon_vma</title>
<path fill="none" stroke="black" d="M1964.64,-1267.35C1941.66,-1267.35 1963.05,-1352.3 1947.64,-1369.35 1902.21,-1419.62 1727.33,-1450.49 1649.9,-1453.16"/>
<polygon fill="black" stroke="black" points="1649.58,-1449.67 1639.64,-1453.35 1649.71,-1456.67 1649.58,-1449.67"/>
<text text-anchor="middle" x="1988.64" y="-1356.75" font-family="Times Roman,serif" font-size="14.00">anon_vma</text>
</g>
<!-- anon_vma_1&#45;&gt;anon_vma_chain_1 -->
<g id="edge36" class="edge"><title>anon_vma_1:rb_root&#45;&gt;anon_vma_chain_1:rb_node</title>
<path fill="none" stroke="green" d="M1639.64,-1427.35C1686.09,-1427.35 2023.16,-1404.4 2053.64,-1369.35 2058.89,-1363.31 2058.69,-1357.56 2053.64,-1351.35 2028.15,-1320.01 1990.14,-1364.19 1964.64,-1332.85 1956.42,-1322.74 1950.73,-1305.88 1955.52,-1297.86"/>
<polygon fill="green" stroke="green" points="1957.23,-1300.92 1964.64,-1293.35 1954.13,-1294.64 1957.23,-1300.92"/>
<text text-anchor="middle" x="2081.64" y="-1356.75" font-family="Times Roman,serif" font-size="14.00">rb_root</text>
</g>
<!-- anon_vma_chain_2 -->
<g id="node19" class="node"><title>anon_vma_chain_2</title>
<polygon fill="none" stroke="black" points="1255.14,-1202.35 1255.14,-1332.35 1634.14,-1332.35 1634.14,-1202.35 1255.14,-1202.35"/>
<text text-anchor="middle" x="1444.64" y="-1315.75" font-family="Times Roman,serif" font-size="14.00">struct anon_vma_chain on fork(1) connecting parent</text>
<polyline fill="none" stroke="black" points="1255.14,-1306.35 1634.14,-1306.35 "/>
<text text-anchor="middle" x="1444.64" y="-1289.75" font-family="Times Roman,serif" font-size="14.00">rb_node</text>
<polyline fill="none" stroke="black" points="1255.14,-1280.35 1634.14,-1280.35 "/>
<text text-anchor="middle" x="1444.64" y="-1263.75" font-family="Times Roman,serif" font-size="14.00">anon_vma</text>
<polyline fill="none" stroke="black" points="1255.14,-1254.35 1634.14,-1254.35 "/>
<text text-anchor="middle" x="1444.64" y="-1237.75" font-family="Times Roman,serif" font-size="14.00">list_head</text>
<polyline fill="none" stroke="black" points="1255.14,-1228.35 1634.14,-1228.35 "/>
<text text-anchor="middle" x="1444.64" y="-1211.75" font-family="Times Roman,serif" font-size="14.00">vm_area_struct</text>
</g>
<!-- anon_vma_1&#45;&gt;anon_vma_chain_2 -->
<g id="edge54" class="edge"><title>anon_vma_1:rb_root&#45;&gt;anon_vma_chain_2:rb_node</title>
<path fill="none" stroke="green" d="M1538.64,-1413.35C1538.64,-1357.67 1611.1,-1383.31 1634.64,-1332.85 1639.98,-1321.41 1646.71,-1306.01 1643.56,-1298.25"/>
<polygon fill="green" stroke="green" points="1645.09,-1295.1 1634.64,-1293.35 1641.72,-1301.23 1645.09,-1295.1"/>
<text text-anchor="middle" x="1643.64" y="-1356.75" font-family="Times Roman,serif" font-size="14.00">rb_root</text>
</g>
<!-- anon_vma_chain_3_1 -->
<g id="node23" class="node"><title>anon_vma_chain_3_1</title>
<polygon fill="none" stroke="black" points="1501.14,-8.34996 1501.14,-138.35 1924.14,-138.35 1924.14,-8.34996 1501.14,-8.34996"/>
<text text-anchor="middle" x="1712.64" y="-121.75" font-family="Times Roman,serif" font-size="14.00">struct anon_vma_chain on fork(2) connecting grand parent</text>
<polyline fill="none" stroke="black" points="1501.14,-112.35 1924.14,-112.35 "/>
<text text-anchor="middle" x="1712.64" y="-95.75" font-family="Times Roman,serif" font-size="14.00">rb_node</text>
<polyline fill="none" stroke="black" points="1501.14,-86.35 1924.14,-86.35 "/>
<text text-anchor="middle" x="1712.64" y="-69.75" font-family="Times Roman,serif" font-size="14.00">anon_vma</text>
<polyline fill="none" stroke="black" points="1501.14,-60.35 1924.14,-60.35 "/>
<text text-anchor="middle" x="1712.64" y="-43.75" font-family="Times Roman,serif" font-size="14.00">list_head</text>
<polyline fill="none" stroke="black" points="1501.14,-34.35 1924.14,-34.35 "/>
<text text-anchor="middle" x="1712.64" y="-17.75" font-family="Times Roman,serif" font-size="14.00">vm_area_struct</text>
</g>
<!-- anon_vma_1&#45;&gt;anon_vma_chain_3_1 -->
<g id="edge70" class="edge"><title>anon_vma_1:rb_root&#45;&gt;anon_vma_chain_3_1:rb_node</title>
<path fill="none" stroke="green" d="M1640.64,-1427.35C1789.02,-1427.35 1933.64,-1415.72 1933.64,-1267.35 1933.64,-1267.35 1933.64,-1267.35 1932.64,-271.35 1932.64,-198.56 1994.64,-108.628 1934.84,-100.02"/>
<polygon fill="green" stroke="green" points="1934.85,-96.5128 1924.64,-99.35 1934.39,-103.498 1934.85,-96.5128"/>
<text text-anchor="middle" x="1958.64" y="-746.75" font-family="Times Roman,serif" font-size="14.00">rb_root</text>
</g>
<!-- vm_area_struct_2 -->
<g id="node18" class="node"><title>vm_area_struct_2</title>
<polygon fill="none" stroke="black" points="1174.14,-778.35 1174.14,-934.35 1415.14,-934.35 1415.14,-778.35 1174.14,-778.35"/>
<text text-anchor="middle" x="1294.64" y="-917.75" font-family="Times Roman,serif" font-size="14.00">struct vm_area_struct on fork(1)</text>
<polyline fill="none" stroke="black" points="1174.14,-908.35 1415.14,-908.35 "/>
<text text-anchor="middle" x="1294.64" y="-891.75" font-family="Times Roman,serif" font-size="14.00">list_head</text>
<polyline fill="none" stroke="black" points="1174.14,-882.35 1415.14,-882.35 "/>
<text text-anchor="middle" x="1294.64" y="-865.75" font-family="Times Roman,serif" font-size="14.00">rb_node/vm_rb</text>
<polyline fill="none" stroke="black" points="1174.14,-856.35 1415.14,-856.35 "/>
<text text-anchor="middle" x="1294.64" y="-839.75" font-family="Times Roman,serif" font-size="14.00">vm_area_struct</text>
<polyline fill="none" stroke="black" points="1174.14,-830.35 1415.14,-830.35 "/>
<text text-anchor="middle" x="1294.64" y="-813.75" font-family="Times Roman,serif" font-size="14.00">vm_area_struct</text>
<polyline fill="none" stroke="black" points="1174.14,-804.35 1415.14,-804.35 "/>
<text text-anchor="middle" x="1294.64" y="-787.75" font-family="Times Roman,serif" font-size="14.00">mm_struct</text>
</g>
<!-- vm_area_struct_2&#45;&gt;anon_vma_chain_2 -->
<g id="edge66" class="edge"><title>vm_area_struct_2:anon_vma_chains&#45;&gt;anon_vma_chain_2:same_vma</title>
<path fill="none" stroke="red" d="M1173.64,-895.35C1156.09,-895.35 1166.34,-918.884 1173.64,-934.85 1189.04,-968.521 1220.19,-956.184 1236.64,-989.35 1247.8,-1011.83 1229.35,-1195.74 1245.42,-1234.28"/>
<polygon fill="red" stroke="red" points="1243.05,-1236.86 1252.64,-1241.35 1247.94,-1231.86 1243.05,-1236.86"/>
<text text-anchor="middle" x="1337.14" y="-1064.75" font-family="Times Roman,serif" font-size="14.00">linked list anon_vma_chains</text>
</g>
<!-- anon_vma_chain_2&#45;&gt;anon_vma_1 -->
<g id="edge58" class="edge"><title>anon_vma_chain_2:anon_vma&#45;&gt;anon_vma_1:anon_vma</title>
<path fill="none" stroke="black" d="M1634.64,-1267.35C1663.75,-1267.35 1653.69,-1310.83 1634.64,-1332.85 1615.99,-1354.42 1533.4,-1339.1 1507.64,-1351.35 1383.91,-1410.2 1363.95,-1449.53 1427.64,-1453.09"/>
<polygon fill="black" stroke="black" points="1427.55,-1456.59 1437.64,-1453.35 1427.74,-1449.59 1427.55,-1456.59"/>
<text text-anchor="middle" x="1543.64" y="-1356.75" font-family="Times Roman,serif" font-size="14.00">anon_vma</text>
</g>
<!-- anon_vma_chain_2&#45;&gt;vm_area_struct_2 -->
<g id="edge60" class="edge"><title>anon_vma_chain_2:vma&#45;&gt;vm_area_struct_2:vm_area_struct</title>
<path fill="none" stroke="black" d="M1252.64,-1215.35C1216.16,-1215.35 1219.99,-1181.31 1206.64,-1147.35 1198.47,-1126.54 1159.4,-967.036 1167.55,-929.323"/>
<polygon fill="black" stroke="black" points="1170.35,-931.421 1173.64,-921.35 1164.79,-927.171 1170.35,-931.421"/>
<text text-anchor="middle" x="1221.64" y="-1064.75" font-family="Times Roman,serif" font-size="14.00">vma</text>
</g>
<!-- anon_vma_chain_2_2 -->
<g id="node20" class="node"><title>anon_vma_chain_2_2</title>
<polygon fill="none" stroke="black" points="1469.14,-1003.35 1469.14,-1133.35 1906.14,-1133.35 1906.14,-1003.35 1469.14,-1003.35"/>
<text text-anchor="middle" x="1687.64" y="-1116.75" font-family="Times Roman,serif" font-size="14.00">struct anon_vma_chain on fork(1) connection new anon vma</text>
<polyline fill="none" stroke="black" points="1469.14,-1107.35 1906.14,-1107.35 "/>
<text text-anchor="middle" x="1687.64" y="-1090.75" font-family="Times Roman,serif" font-size="14.00">rb_node</text>
<polyline fill="none" stroke="black" points="1469.14,-1081.35 1906.14,-1081.35 "/>
<text text-anchor="middle" x="1687.64" y="-1064.75" font-family="Times Roman,serif" font-size="14.00">anon_vma</text>
<polyline fill="none" stroke="black" points="1469.14,-1055.35 1906.14,-1055.35 "/>
<text text-anchor="middle" x="1687.64" y="-1038.75" font-family="Times Roman,serif" font-size="14.00">list_head</text>
<polyline fill="none" stroke="black" points="1469.14,-1029.35 1906.14,-1029.35 "/>
<text text-anchor="middle" x="1687.64" y="-1012.75" font-family="Times Roman,serif" font-size="14.00">vm_area_struct</text>
</g>
<!-- anon_vma_chain_2&#45;&gt;anon_vma_chain_2_2 -->
<g id="edge68" class="edge"><title>anon_vma_chain_2:same_vma&#45;&gt;anon_vma_chain_2_2:same_vma</title>
<path fill="none" stroke="red" d="M1634.64,-1241.35C1652.2,-1241.35 1644.42,-1216.43 1634.64,-1201.85 1590.22,-1135.65 1513.07,-1200.05 1468.64,-1133.85 1459.3,-1119.93 1451.55,-1066.8 1460.49,-1048.55"/>
<polygon fill="red" stroke="red" points="1462.8,-1051.19 1468.64,-1042.35 1458.56,-1045.62 1462.8,-1051.19"/>
<text text-anchor="middle" x="1696.14" y="-1170.75" font-family="Times Roman,serif" font-size="14.00">linked list of same_vma</text>
</g>
<!-- anon_vma_chain_2_2&#45;&gt;vm_area_struct_2 -->
<g id="edge64" class="edge"><title>anon_vma_chain_2_2:vma&#45;&gt;vm_area_struct_2:vm_area_struct</title>
<path fill="none" stroke="black" d="M1466.64,-1016.35C1453.69,-1016.35 1461.48,-1000.92 1455.64,-989.35 1451.42,-980.981 1449.44,-979.406 1444.64,-971.35 1433.66,-952.899 1438.72,-930.356 1425.68,-923.456"/>
<polygon fill="black" stroke="black" points="1426.15,-919.979 1415.64,-921.35 1424.71,-926.829 1426.15,-919.979"/>
<text text-anchor="middle" x="1459.64" y="-958.75" font-family="Times Roman,serif" font-size="14.00">vma</text>
</g>
<!-- anon_vma_2 -->
<g id="node21" class="node"><title>anon_vma_2</title>
<polygon fill="none" stroke="black" points="1589.64,-830.35 1589.64,-882.35 1799.64,-882.35 1799.64,-830.35 1589.64,-830.35"/>
<text text-anchor="middle" x="1694.64" y="-865.75" font-family="Times Roman,serif" font-size="14.00">struct anon_vma on fork (1)</text>
<polyline fill="none" stroke="black" points="1589.64,-856.35 1799.64,-856.35 "/>
<text text-anchor="middle" x="1694.64" y="-839.75" font-family="Times Roman,serif" font-size="14.00">rb_root</text>
</g>
<!-- anon_vma_chain_2_2&#45;&gt;anon_vma_2 -->
<g id="edge62" class="edge"><title>anon_vma_chain_2_2:anon_vma&#45;&gt;anon_vma_2:anon_vma</title>
<path fill="none" stroke="black" d="M1907.64,-1068.35C1922.2,-1068.35 1914.22,-1015.28 1906.64,-1002.85 1891.16,-977.475 1873.61,-985.826 1847.64,-971.35 1782.15,-934.836 1702.51,-958.541 1695.19,-892.727"/>
<polygon fill="black" stroke="black" points="1698.66,-892.152 1694.64,-882.35 1691.67,-892.52 1698.66,-892.152"/>
<text text-anchor="middle" x="1883.64" y="-958.75" font-family="Times Roman,serif" font-size="14.00">anon_vma</text>
</g>
<!-- anon_vma_2&#45;&gt;anon_vma_chain_2_2 -->
<g id="edge56" class="edge"><title>anon_vma_2:rb_root&#45;&gt;anon_vma_chain_2_2:rb_node</title>
<path fill="none" stroke="black" d="M1589.64,-843.35C1500.66,-843.35 1497.93,-918.83 1468.64,-1002.85 1463.18,-1018.53 1451.75,-1069.59 1458.8,-1087.82"/>
<polygon fill="black" stroke="black" points="1456.72,-1090.64 1466.64,-1094.35 1461.2,-1085.26 1456.72,-1090.64"/>
<text text-anchor="middle" x="1508.64" y="-958.75" font-family="Times Roman,serif" font-size="14.00">rb_root</text>
</g>
<!-- anon_vma_chain_3_2 -->
<g id="node24" class="node"><title>anon_vma_chain_3_2</title>
<polygon fill="none" stroke="black" points="1457.14,-592.35 1457.14,-722.35 1836.14,-722.35 1836.14,-592.35 1457.14,-592.35"/>
<text text-anchor="middle" x="1646.64" y="-705.75" font-family="Times Roman,serif" font-size="14.00">struct anon_vma_chain on fork(2) connecting parent</text>
<polyline fill="none" stroke="black" points="1457.14,-696.35 1836.14,-696.35 "/>
<text text-anchor="middle" x="1646.64" y="-679.75" font-family="Times Roman,serif" font-size="14.00">rb_node</text>
<polyline fill="none" stroke="black" points="1457.14,-670.35 1836.14,-670.35 "/>
<text text-anchor="middle" x="1646.64" y="-653.75" font-family="Times Roman,serif" font-size="14.00">anon_vma</text>
<polyline fill="none" stroke="black" points="1457.14,-644.35 1836.14,-644.35 "/>
<text text-anchor="middle" x="1646.64" y="-627.75" font-family="Times Roman,serif" font-size="14.00">list_head</text>
<polyline fill="none" stroke="black" points="1457.14,-618.35 1836.14,-618.35 "/>
<text text-anchor="middle" x="1646.64" y="-601.75" font-family="Times Roman,serif" font-size="14.00">vm_area_struct</text>
</g>
<!-- anon_vma_2&#45;&gt;anon_vma_chain_3_2 -->
<g id="edge72" class="edge"><title>anon_vma_2:rb_root&#45;&gt;anon_vma_chain_3_2:rb_node</title>
<path fill="none" stroke="black" d="M1693.64,-829.35C1693.64,-750.105 1801.08,-793.669 1836.64,-722.85 1842.3,-711.574 1848.9,-696.101 1845.64,-688.29"/>
<polygon fill="black" stroke="black" points="1847.09,-685.096 1836.64,-683.35 1843.72,-691.231 1847.09,-685.096"/>
<text text-anchor="middle" x="1845.64" y="-746.75" font-family="Times Roman,serif" font-size="14.00">rb_root</text>
</g>
<!-- vm_area_struct_3 -->
<g id="node22" class="node"><title>vm_area_struct_3</title>
<polygon fill="none" stroke="black" points="1453.14,-194.35 1453.14,-350.35 1730.14,-350.35 1730.14,-194.35 1453.14,-194.35"/>
<text text-anchor="middle" x="1591.64" y="-333.75" font-family="Times Roman,serif" font-size="14.00">struct vm_area_struct on child fork(2)</text>
<polyline fill="none" stroke="black" points="1453.14,-324.35 1730.14,-324.35 "/>
<text text-anchor="middle" x="1591.64" y="-307.75" font-family="Times Roman,serif" font-size="14.00">list_head</text>
<polyline fill="none" stroke="black" points="1453.14,-298.35 1730.14,-298.35 "/>
<text text-anchor="middle" x="1591.64" y="-281.75" font-family="Times Roman,serif" font-size="14.00">rb_node/vm_rb</text>
<polyline fill="none" stroke="black" points="1453.14,-272.35 1730.14,-272.35 "/>
<text text-anchor="middle" x="1591.64" y="-255.75" font-family="Times Roman,serif" font-size="14.00">vm_area_struct</text>
<polyline fill="none" stroke="black" points="1453.14,-246.35 1730.14,-246.35 "/>
<text text-anchor="middle" x="1591.64" y="-229.75" font-family="Times Roman,serif" font-size="14.00">vm_area_struct</text>
<polyline fill="none" stroke="black" points="1453.14,-220.35 1730.14,-220.35 "/>
<text text-anchor="middle" x="1591.64" y="-203.75" font-family="Times Roman,serif" font-size="14.00">mm_struct</text>
</g>
<!-- vm_area_struct_3&#45;&gt;anon_vma_chain_3_1 -->
<g id="edge88" class="edge"><title>vm_area_struct_3:anon_vma_chains&#45;&gt;anon_vma_chain_3_1:same_vma</title>
<path fill="none" stroke="blue" d="M1450.64,-311.35C1437.59,-311.35 1450.47,-206.726 1452.64,-193.85 1463.42,-129.847 1435.37,-55.6434 1490.62,-47.9952"/>
<polygon fill="blue" stroke="blue" points="1490.89,-51.4853 1500.64,-47.35 1490.44,-44.4998 1490.89,-51.4853"/>
<text text-anchor="middle" x="1551.14" y="-162.75" font-family="Times Roman,serif" font-size="14.00">linked list anon_vma_chains</text>
</g>
<!-- anon_vma_chain_3_1&#45;&gt;anon_vma_1 -->
<g id="edge76" class="edge"><title>anon_vma_chain_3_1:anon_vma&#45;&gt;anon_vma_1:anon_vma</title>
<path fill="none" stroke="black" d="M1500.64,-73.35C1319.98,-73.35 1145.64,-90.6905 1145.64,-271.35 1146.64,-1267.35 1146.64,-1267.35 1146.64,-1267.35 1146.64,-1417.76 1278.64,-1451.85 1428.3,-1453.3"/>
<polygon fill="black" stroke="black" points="1428.63,-1456.8 1438.64,-1453.35 1428.66,-1449.8 1428.63,-1456.8"/>
<text text-anchor="middle" x="1182.64" y="-746.75" font-family="Times Roman,serif" font-size="14.00">anon_vma</text>
</g>
<!-- anon_vma_chain_3_1&#45;&gt;vm_area_struct_3 -->
<g id="edge78" class="edge"><title>anon_vma_chain_3_1:vma&#45;&gt;vm_area_struct_3:vm_area_struct</title>
<path fill="none" stroke="black" d="M1712.64,-7.34996C1712.64,4.37239 1915.37,-0.0413848 1923.64,-8.34996 1964.56,-49.4592 1962.81,-96.0761 1923.64,-138.85 1892,-173.399 1745.28,-122.801 1713.64,-157.35 1708.24,-163.25 1710.74,-167.896 1713.64,-175.35 1717.7,-185.754 1726.55,-183.46 1730.64,-193.85 1735.57,-206.368 1744.25,-299.922 1737.26,-328.851"/>
<polygon fill="black" stroke="black" points="1734.24,-327.077 1731.64,-337.35 1740.08,-330.937 1734.24,-327.077"/>
<text text-anchor="middle" x="1728.64" y="-162.75" font-family="Times Roman,serif" font-size="14.00">vma</text>
</g>
<!-- anon_vma_chain_3_1&#45;&gt;anon_vma_chain_3_2 -->
<g id="edge90" class="edge"><title>anon_vma_chain_3_1:same_vma&#45;&gt;anon_vma_chain_3_2:same_vma</title>
<path fill="none" stroke="blue" d="M1924.64,-47.35C2085.65,-47.35 1808.08,-216.117 1758.64,-369.35 1722.47,-481.477 1944.05,-622.516 1846.71,-630.952"/>
<polygon fill="blue" stroke="blue" points="1846.5,-627.458 1836.64,-631.35 1846.77,-634.453 1846.5,-627.458"/>
<text text-anchor="middle" x="1839.14" y="-374.75" font-family="Times Roman,serif" font-size="14.00">linked list of same_vma</text>
</g>
<!-- anon_vma_chain_3_2&#45;&gt;anon_vma_2 -->
<g id="edge80" class="edge"><title>anon_vma_chain_3_2:anon_vma&#45;&gt;anon_vma_2:anon_vma</title>
<path fill="none" stroke="black" d="M1456.64,-657.35C1349.24,-657.35 1469.17,-856.708 1577.54,-868.779"/>
<polygon fill="black" stroke="black" points="1577.46,-872.28 1587.64,-869.35 1577.86,-865.291 1577.46,-872.28"/>
<text text-anchor="middle" x="1471.64" y="-746.75" font-family="Times Roman,serif" font-size="14.00">anon_vma</text>
</g>
<!-- anon_vma_chain_3_2&#45;&gt;vm_area_struct_3 -->
<g id="edge82" class="edge"><title>anon_vma_chain_3_2:vma&#45;&gt;vm_area_struct_3:vm_area_struct</title>
<path fill="none" stroke="black" d="M1646.64,-592.35C1646.64,-493.044 1688.7,-451.324 1632.64,-369.35 1624.05,-356.787 1604.94,-363.887 1596.18,-359.323"/>
<polygon fill="black" stroke="black" points="1599.28,-357.694 1591.64,-350.35 1593.03,-360.853 1599.28,-357.694"/>
<text text-anchor="middle" x="1676.64" y="-467.75" font-family="Times Roman,serif" font-size="14.00">vma</text>
</g>
<!-- anon_vma_chain_3_3 -->
<g id="node25" class="node"><title>anon_vma_chain_3_3</title>
<polygon fill="none" stroke="black" points="1174.14,-406.35 1174.14,-536.35 1611.14,-536.35 1611.14,-406.35 1174.14,-406.35"/>
<text text-anchor="middle" x="1392.64" y="-519.75" font-family="Times Roman,serif" font-size="14.00">struct anon_vma_chain on fork(2) connecting new anon vma</text>
<polyline fill="none" stroke="black" points="1174.14,-510.35 1611.14,-510.35 "/>
<text text-anchor="middle" x="1392.64" y="-493.75" font-family="Times Roman,serif" font-size="14.00">rb_node</text>
<polyline fill="none" stroke="black" points="1174.14,-484.35 1611.14,-484.35 "/>
<text text-anchor="middle" x="1392.64" y="-467.75" font-family="Times Roman,serif" font-size="14.00">anon_vma</text>
<polyline fill="none" stroke="black" points="1174.14,-458.35 1611.14,-458.35 "/>
<text text-anchor="middle" x="1392.64" y="-441.75" font-family="Times Roman,serif" font-size="14.00">list_head</text>
<polyline fill="none" stroke="black" points="1174.14,-432.35 1611.14,-432.35 "/>
<text text-anchor="middle" x="1392.64" y="-415.75" font-family="Times Roman,serif" font-size="14.00">vm_area_struct</text>
</g>
<!-- anon_vma_chain_3_2&#45;&gt;anon_vma_chain_3_3 -->
<g id="edge92" class="edge"><title>anon_vma_chain_3_2:same_vma&#45;&gt;anon_vma_chain_3_3:same_vma</title>
<path fill="none" stroke="blue" d="M1454.64,-631.35C1424.82,-631.35 1465.02,-560.45 1471.64,-555.35 1521.37,-517.061 1570.27,-584.048 1611.64,-536.85 1622.74,-524.187 1629.4,-469.747 1619.82,-451.408"/>
<polygon fill="blue" stroke="blue" points="1621.76,-448.492 1611.64,-445.35 1617.59,-454.116 1621.76,-448.492"/>
<text text-anchor="middle" x="1552.14" y="-560.75" font-family="Times Roman,serif" font-size="14.00">linked list of same_vma</text>
</g>
<!-- anon_vma_chain_3_3&#45;&gt;vm_area_struct_3 -->
<g id="edge86" class="edge"><title>anon_vma_chain_3_3:vma&#45;&gt;vm_area_struct_3:vm_area_struct</title>
<path fill="none" stroke="black" d="M1612.64,-419.35C1618.66,-419.35 1613.21,-411.659 1611.64,-405.85 1609.26,-397.022 1605.96,-395.872 1602.64,-387.35 1597.88,-375.108 1593.96,-369.979 1592.39,-360.548"/>
<polygon fill="black" stroke="black" points="1595.86,-360.068 1591.64,-350.35 1588.88,-360.578 1595.86,-360.068"/>
<text text-anchor="middle" x="1617.64" y="-374.75" font-family="Times Roman,serif" font-size="14.00">vma</text>
</g>
<!-- anon_vma_3 -->
<g id="node26" class="node"><title>anon_vma_3</title>
<polygon fill="none" stroke="black" points="1189.64,-246.35 1189.64,-298.35 1435.64,-298.35 1435.64,-246.35 1189.64,-246.35"/>
<text text-anchor="middle" x="1312.64" y="-281.75" font-family="Times Roman,serif" font-size="14.00">struct anon_vma on child fork (2)</text>
<polyline fill="none" stroke="black" points="1189.64,-272.35 1435.64,-272.35 "/>
<text text-anchor="middle" x="1312.64" y="-255.75" font-family="Times Roman,serif" font-size="14.00">rb_root</text>
</g>
<!-- anon_vma_chain_3_3&#45;&gt;anon_vma_3 -->
<g id="edge84" class="edge"><title>anon_vma_chain_3_3:anon_vma&#45;&gt;anon_vma_3:anon_vma</title>
<path fill="none" stroke="black" d="M1171.64,-471.35C1157.08,-471.35 1164.23,-416.965 1173.64,-405.85 1200.87,-373.684 1226.9,-401.38 1266.64,-387.35 1346.59,-359.124 1391.75,-371.389 1435.64,-298.85 1436.27,-297.807 1436.9,-296.631 1437.44,-295.419"/>
<polygon fill="black" stroke="black" points="1440.84,-294.581 1435.64,-285.35 1433.95,-295.809 1440.84,-294.581"/>
<text text-anchor="middle" x="1365.64" y="-374.75" font-family="Times Roman,serif" font-size="14.00">anon_vma</text>
</g>
<!-- anon_vma_3&#45;&gt;anon_vma_chain_3_3 -->
<g id="edge74" class="edge"><title>anon_vma_3:rb_root&#45;&gt;anon_vma_chain_3_3:rb_node</title>
<path fill="none" stroke="black" d="M1312.64,-245.35C1312.64,-231.683 1426.02,-236.647 1435.64,-246.35 1443.86,-254.633 1442.15,-289.166 1435.64,-298.85 1365.5,-403.259 1244.35,-301.826 1173.64,-405.85 1164.22,-419.711 1155.84,-472.882 1164.57,-491.147"/>
<polygon fill="black" stroke="black" points="1162.58,-494.035 1172.64,-497.35 1166.84,-488.483 1162.58,-494.035"/>
<text text-anchor="middle" x="1237.64" y="-374.75" font-family="Times Roman,serif" font-size="14.00">rb_root</text>
</g>
</g>
</svg>
