<?xml version="1.0" encoding="UTF-8" standalone="no"?>
<!DOCTYPE svg PUBLIC "-//W3C//DTD SVG 1.1//EN"
 "http://www.w3.org/Graphics/SVG/1.1/DTD/svg11.dtd">
<!-- Generated by graphviz version 2.26.3 (20100126.1600)
 -->
<!-- Title: G Pages: 1 -->
<svg width="3599pt" height="2036pt"
 viewBox="0.00 0.00 3599.00 2036.00" xmlns="http://www.w3.org/2000/svg" xmlns:xlink="http://www.w3.org/1999/xlink">
<g id="graph1" class="graph" transform="scale(1 1) rotate(0) translate(4 2032)">
<title>G</title>
<polygon fill="white" stroke="white" points="-4,5 -4,-2032 3596,-2032 3596,5 -4,5"/>
<!-- swapper -->
<g id="node1" class="node"><title>swapper</title>
<polygon fill="none" stroke="black" points="2999,-1670 2871,-1670 2871,-1626 2999,-1626 2999,-1670"/>
<text text-anchor="middle" x="2935" y="-1653.4" font-family="Times Roman,serif" font-size="14.00">kswapd process </text>
<text text-anchor="middle" x="2935" y="-1635.4" font-family="Times Roman,serif" font-size="14.00"> One per node</text>
</g>
<!-- kswapd -->
<g id="node2" class="node"><title>kswapd</title>
<ellipse fill="none" stroke="black" cx="2931" cy="-1535" rx="56.0679" ry="18.3848"/>
<text text-anchor="middle" x="2931" y="-1531.4" font-family="Times Roman,serif" font-size="14.00">kswapd()</text>
</g>
<!-- swapper&#45;&gt;kswapd -->
<g id="edge4" class="edge"><title>swapper&#45;&gt;kswapd</title>
<path fill="none" stroke="black" d="M2934.22,-1625.94C2933.59,-1608.17 2932.7,-1583.04 2932.02,-1563.7"/>
<polygon fill="black" stroke="black" points="2935.51,-1563.5 2931.66,-1553.63 2928.52,-1563.75 2935.51,-1563.5"/>
</g>
<!-- balance_pgdata -->
<g id="node3" class="node"><title>balance_pgdata</title>
<ellipse fill="none" stroke="black" cx="2931" cy="-1346" rx="659.938" ry="43.8406"/>
<text text-anchor="middle" x="2931" y="-1360.4" font-family="Times Roman,serif" font-size="14.00">balance_pgdata() </text>
<text text-anchor="middle" x="2931" y="-1342.4" font-family="Times Roman,serif" font-size="14.00"> 		 &#160;&#160;&#160;&#160;&#160;&#160;scan_control = [gfp_mask = GFP_KERNEL, may_unmap, may_swap, nr_to_reclaim = ULONG_MAX, order=passed arg </text>
<text text-anchor="middle" x="2931" y="-1324.4" font-family="Times Roman,serif" font-size="14.00"> 		 &#160;&#160;&#160;&#160;&#160;&#160;starts with DEF_PRIORITY scan control priority and loops while sc.priority &gt;= 0) </text>
</g>
<!-- kswapd&#45;&gt;balance_pgdata -->
<g id="edge5" class="edge"><title>kswapd&#45;&gt;balance_pgdata</title>
<path fill="none" stroke="black" d="M2931,-1516.19C2931,-1489.45 2931,-1439.37 2931,-1400.43"/>
<polygon fill="black" stroke="black" points="2934.5,-1400.28 2931,-1390.28 2927.5,-1400.28 2934.5,-1400.28"/>
</g>
<!-- balance_pgdata_1 -->
<g id="node4" class="node"><title>balance_pgdata_1</title>
<polygon fill="none" stroke="black" points="2460.5,-1015 2460.5,-1119 2691.5,-1119 2691.5,-1015 2460.5,-1015"/>
<text text-anchor="middle" x="2576" y="-1102.4" font-family="Times Roman,serif" font-size="14.00">age_active_anon</text>
<polyline fill="none" stroke="black" points="2460.5,-1093 2691.5,-1093 "/>
<text text-anchor="middle" x="2576" y="-1076.4" font-family="Times Roman,serif" font-size="14.00">mem_cgroup_soft_limit_reclaim</text>
<polyline fill="none" stroke="black" points="2460.5,-1067 2691.5,-1067 "/>
<text text-anchor="middle" x="2576" y="-1050.4" font-family="Times Roman,serif" font-size="14.00">shrink_zone</text>
<polyline fill="none" stroke="black" points="2460.5,-1041 2691.5,-1041 "/>
<text text-anchor="middle" x="2576" y="-1024.4" font-family="Times Roman,serif" font-size="14.00">shrink_slab</text>
</g>
<!-- balance_pgdata&#45;&gt;balance_pgdata_1 -->
<g id="edge6" class="edge"><title>balance_pgdata&#45;&gt;balance_pgdata_1</title>
<path fill="none" stroke="black" d="M2875.14,-1302.1C2814.54,-1254.47 2717.48,-1178.19 2650.43,-1125.5"/>
<polygon fill="black" stroke="black" points="2652.44,-1122.62 2642.41,-1119.19 2648.11,-1128.12 2652.44,-1122.62"/>
</g>
<!-- shrink_zone -->
<g id="node6" class="node"><title>shrink_zone</title>
<ellipse fill="none" stroke="black" cx="1957" cy="-861" rx="168.999" ry="31.1127"/>
<text text-anchor="middle" x="1957" y="-866.4" font-family="Times Roman,serif" font-size="14.00">shrink zone </text>
<text text-anchor="middle" x="1957" y="-848.4" font-family="Times Roman,serif" font-size="14.00"> iterate over each memcg lruvec</text>
</g>
<!-- balance_pgdata_1&#45;&gt;shrink_zone -->
<g id="edge10" class="edge"><title>balance_pgdata_1:shrink_zone&#45;&gt;shrink_zone</title>
<path fill="none" stroke="black" d="M2459,-1054C2434.83,-1054 2463.49,-962.684 2446,-946 2426.01,-926.932 2225.22,-932.723 2198,-928 2147.87,-919.302 2093.15,-904.533 2048.54,-891.072"/>
<polygon fill="black" stroke="black" points="2049.48,-887.698 2038.89,-888.133 2047.44,-894.394 2049.48,-887.698"/>
</g>
<!-- shrink_active_list -->
<g id="node9" class="node"><title>shrink_active_list</title>
<polygon fill="none" stroke="black" points="2141,-363 2141,-467 2425,-467 2425,-363 2141,-363"/>
<text text-anchor="middle" x="2283" y="-450.4" font-family="Times Roman,serif" font-size="14.00">shrink_active_list</text>
<polyline fill="none" stroke="black" points="2141,-441 2425,-441 "/>
<text text-anchor="middle" x="2283" y="-424.4" font-family="Times Roman,serif" font-size="14.00">lru_add_drain</text>
<polyline fill="none" stroke="black" points="2141,-415 2425,-415 "/>
<text text-anchor="middle" x="2283" y="-398.4" font-family="Times Roman,serif" font-size="14.00">isolate_lru_pages and move to inactive</text>
<polyline fill="none" stroke="black" points="2141,-389 2425,-389 "/>
<text text-anchor="middle" x="2283" y="-372.4" font-family="Times Roman,serif" font-size="14.00">move_active_pages_to_lru</text>
</g>
<!-- balance_pgdata_1&#45;&gt;shrink_active_list -->
<g id="edge8" class="edge"><title>balance_pgdata_1:age_active_anon&#45;&gt;shrink_active_list</title>
<path fill="none" stroke="black" d="M2576,-1121C2576,-1133.78 2682.04,-1128.11 2691,-1119 2723.55,-1085.87 2705.21,-1058.72 2691,-1014.5 2665.32,-934.593 2581,-944.931 2581,-861 2581,-861 2581,-861 2581,-564 2581,-525.241 2575.26,-505.904 2542,-486 2531.43,-479.674 2485.44,-466.47 2435.08,-453.145"/>
<polygon fill="black" stroke="black" points="2435.86,-449.731 2425.3,-450.569 2434.08,-456.5 2435.86,-449.731"/>
</g>
<!-- shrink_slab -->
<g id="node39" class="node"><title>shrink_slab</title>
<ellipse fill="none" stroke="black" cx="2210" cy="-861" rx="65.9683" ry="18.3848"/>
<text text-anchor="middle" x="2210" y="-857.4" font-family="Times Roman,serif" font-size="14.00">shrink_slab</text>
</g>
<!-- balance_pgdata_1&#45;&gt;shrink_slab -->
<g id="edge22" class="edge"><title>balance_pgdata_1:shrink_slab&#45;&gt;shrink_slab</title>
<path fill="none" stroke="black" d="M2459,-1028C2440.55,-1028 2459.56,-958.509 2446,-946 2407.5,-910.491 2246.88,-966.156 2211,-928 2201.63,-918.036 2200.66,-903.092 2202.34,-889.845"/>
<polygon fill="black" stroke="black" points="2205.84,-890.172 2204.16,-879.712 2198.95,-888.939 2205.84,-890.172"/>
<text text-anchor="middle" x="2389" y="-915.4" font-family="Times Roman,serif" font-size="14.00">inorder to keep balance between lru and slab cache</text>
</g>
<!-- wakeup_kswapd -->
<g id="node5" class="node"><title>wakeup_kswapd</title>
<ellipse fill="none" stroke="black" cx="2947" cy="-1779" rx="239.209" ry="43.8406"/>
<text text-anchor="middle" x="2947" y="-1793.4" font-family="Times Roman,serif" font-size="14.00">wake_kswapd() </text>
<text text-anchor="middle" x="2947" y="-1775.4" font-family="Times Roman,serif" font-size="14.00">page allocation slow path </text>
<text text-anchor="middle" x="2947" y="-1757.4" font-family="Times Roman,serif" font-size="14.00"> Wakes up kswapd with allocation order as arg</text>
</g>
<!-- wakeup_kswapd&#45;&gt;swapper -->
<g id="edge2" class="edge"><title>wakeup_kswapd&#45;&gt;swapper</title>
<path fill="none" stroke="black" d="M2942.94,-1734.65C2941.31,-1716.87 2939.47,-1696.76 2937.97,-1680.39"/>
<polygon fill="black" stroke="black" points="2941.44,-1679.88 2937.04,-1670.24 2934.46,-1680.52 2941.44,-1679.88"/>
</g>
<!-- shrink_lruvec -->
<g id="node7" class="node"><title>shrink_lruvec</title>
<polygon fill="none" stroke="black" points="1866,-661 1866,-791 2102,-791 2102,-661 1866,-661"/>
<text text-anchor="middle" x="1984" y="-774.4" font-family="Times Roman,serif" font-size="14.00">shrink_lruvec</text>
<polyline fill="none" stroke="black" points="1866,-765 2102,-765 "/>
<text text-anchor="middle" x="1984" y="-748.4" font-family="Times Roman,serif" font-size="14.00">blk_start_plug</text>
<polyline fill="none" stroke="black" points="1866,-739 2102,-739 "/>
<text text-anchor="middle" x="1984" y="-722.4" font-family="Times Roman,serif" font-size="14.00">for each evictable lru shrink_list</text>
<polyline fill="none" stroke="black" points="1866,-713 2102,-713 "/>
<text text-anchor="middle" x="1984" y="-696.4" font-family="Times Roman,serif" font-size="14.00">blk_finish_plug</text>
<polyline fill="none" stroke="black" points="1866,-687 2102,-687 "/>
<text text-anchor="middle" x="1984" y="-670.4" font-family="Times Roman,serif" font-size="14.00">shrink_active_list</text>
</g>
<!-- shrink_zone&#45;&gt;shrink_lruvec -->
<g id="edge11" class="edge"><title>shrink_zone&#45;&gt;shrink_lruvec</title>
<path fill="none" stroke="black" d="M1963.26,-829.689C1964.99,-821.043 1966.95,-811.272 1968.95,-801.271"/>
<polygon fill="black" stroke="black" points="1972.43,-801.718 1970.95,-791.226 1965.56,-800.346 1972.43,-801.718"/>
</g>
<!-- shrink_list -->
<g id="node8" class="node"><title>shrink_list</title>
<polygon fill="none" stroke="black" points="2013.5,-507 2013.5,-621 2552.5,-621 2552.5,-507 2013.5,-507"/>
<text text-anchor="middle" x="2283" y="-604.4" font-family="Times Roman,serif" font-size="14.00">shrink_list</text>
<polyline fill="none" stroke="black" points="2013.5,-595 2552.5,-595 "/>
<text text-anchor="middle" x="2283" y="-578.4" font-family="Times Roman,serif" font-size="14.00">(is_active_lru(lru)) </text>
<text text-anchor="middle" x="2283" y="-560.4" font-family="Times Roman,serif" font-size="14.00"> 						if (inactive_list_is_low(lruvec, lru)) </text>
<text text-anchor="middle" x="2283" y="-542.4" font-family="Times Roman,serif" font-size="14.00"> 						shrink_active_list(nr_to_scan, lruvec, sc, lru)</text>
<polyline fill="none" stroke="black" points="2013.5,-533 2552.5,-533 "/>
<text text-anchor="middle" x="2283" y="-516.4" font-family="Times Roman,serif" font-size="14.00">shrink_inactive_list</text>
</g>
<!-- shrink_lruvec&#45;&gt;shrink_list -->
<g id="edge13" class="edge"><title>shrink_lruvec:shrink_list&#45;&gt;shrink_list</title>
<path fill="none" stroke="black" d="M2103,-726C2117.77,-726 2102.77,-672.267 2111,-660 2119.13,-647.888 2129.33,-637.148 2140.67,-627.657"/>
<polygon fill="black" stroke="black" points="2143.05,-630.243 2148.7,-621.285 2138.69,-624.76 2143.05,-630.243"/>
</g>
<!-- shrink_lruvec&#45;&gt;shrink_active_list -->
<g id="edge15" class="edge"><title>shrink_lruvec:shrink_active_list&#45;&gt;shrink_active_list</title>
<path fill="none" stroke="black" d="M1984,-661C1984,-591.482 1960.51,-559.413 2005,-506 2022.71,-484.743 2075.7,-465.096 2130.74,-449.539"/>
<polygon fill="black" stroke="black" points="2131.97,-452.83 2140.67,-446.782 2130.09,-446.085 2131.97,-452.83"/>
</g>
<!-- shrink_list&#45;&gt;shrink_active_list -->
<g id="edge17" class="edge"><title>shrink_list:shrink_active_list&#45;&gt;shrink_active_list</title>
<path fill="none" stroke="black" d="M2554,-564C2566.78,-564 2560.54,-516.821 2553,-506.5 2537.37,-485.098 2487.58,-465.591 2434.93,-450.138"/>
<polygon fill="black" stroke="black" points="2435.65,-446.704 2425.07,-447.301 2433.72,-453.431 2435.65,-446.704"/>
</g>
<!-- shrink_inactive_list -->
<g id="node37" class="node"><title>shrink_inactive_list</title>
<ellipse fill="none" stroke="black" cx="2606" cy="-415" rx="104.86" ry="18.3848"/>
<text text-anchor="middle" x="2606" y="-411.4" font-family="Times Roman,serif" font-size="14.00">shrink_inactive_list</text>
</g>
<!-- shrink_list&#45;&gt;shrink_inactive_list -->
<g id="edge20" class="edge"><title>shrink_list:shrink_inactive_list&#45;&gt;shrink_inactive_list</title>
<path fill="none" stroke="black" d="M2554,-520C2588.03,-520 2599.79,-475.168 2603.85,-444.094"/>
<polygon fill="black" stroke="black" points="2607.37,-444.096 2604.99,-433.772 2600.42,-443.327 2607.37,-444.096"/>
</g>
<!-- free_hot_cold_page_list -->
<g id="node35" class="node"><title>free_hot_cold_page_list</title>
<ellipse fill="none" stroke="black" cx="2283" cy="-238" rx="125.158" ry="18.3848"/>
<text text-anchor="middle" x="2283" y="-234.4" font-family="Times Roman,serif" font-size="14.00">free_hot_cold_page_list</text>
</g>
<!-- shrink_active_list&#45;&gt;free_hot_cold_page_list -->
<g id="edge18" class="edge"><title>shrink_active_list&#45;&gt;free_hot_cold_page_list</title>
<path fill="none" stroke="black" d="M2283,-362.851C2283,-331.622 2283,-293.083 2283,-267.152"/>
<polygon fill="black" stroke="black" points="2286.5,-266.869 2283,-256.869 2279.5,-266.869 2286.5,-266.869"/>
</g>
<!-- slab_timer -->
<g id="node10" class="node"><title>slab_timer</title>
<polygon fill="none" stroke="black" points="2634,-2028 2504,-2028 2504,-1984 2634,-1984 2634,-2028"/>
<text text-anchor="middle" x="2569" y="-2011.4" font-family="Times Roman,serif" font-size="14.00">timer from slab </text>
<text text-anchor="middle" x="2569" y="-1993.4" font-family="Times Roman,serif" font-size="14.00"> start_cpu_timer</text>
</g>
<!-- cache_reap -->
<g id="node16" class="node"><title>cache_reap</title>
<ellipse fill="none" stroke="black" cx="2569" cy="-1906" rx="202.94" ry="31.1127"/>
<text text-anchor="middle" x="2569" y="-1911.4" font-family="Times Roman,serif" font-size="14.00">cache_reap </text>
<text text-anchor="middle" x="2569" y="-1893.4" font-family="Times Roman,serif" font-size="14.00">		 &#160;&#160;for each slab call drain slab</text>
</g>
<!-- slab_timer&#45;&gt;cache_reap -->
<g id="edge26" class="edge"><title>slab_timer&#45;&gt;cache_reap</title>
<path fill="none" stroke="black" d="M2569,-1983.81C2569,-1973.11 2569,-1959.92 2569,-1947.46"/>
<polygon fill="black" stroke="black" points="2572.5,-1947.23 2569,-1937.23 2565.5,-1947.23 2572.5,-1947.23"/>
</g>
<!-- shrinker -->
<g id="node11" class="node"><title>shrinker</title>
<ellipse fill="none" stroke="black" cx="2213" cy="-726" rx="92.839" ry="18.3848"/>
<text text-anchor="middle" x="2213" y="-722.4" font-family="Times Roman,serif" font-size="14.00">shrinker&#45;&gt;shrink</text>
</g>
<!-- generic_perform_write -->
<g id="node12" class="node"><title>generic_perform_write</title>
<ellipse fill="none" stroke="black" cx="169" cy="-1535" rx="121.122" ry="18.3848"/>
<text text-anchor="middle" x="169" y="-1531.4" font-family="Times Roman,serif" font-size="14.00">generic_perform_write</text>
</g>
<!-- balance_dirty_pages_ratelimited -->
<g id="node75" class="node"><title>balance_dirty_pages_ratelimited</title>
<ellipse fill="none" stroke="black" cx="169" cy="-1346" rx="168.999" ry="18.3848"/>
<text text-anchor="middle" x="169" y="-1342.4" font-family="Times Roman,serif" font-size="14.00">balance_dirty_pages_ratelimited</text>
</g>
<!-- generic_perform_write&#45;&gt;balance_dirty_pages_ratelimited -->
<g id="edge78" class="edge"><title>generic_perform_write&#45;&gt;balance_dirty_pages_ratelimited</title>
<path fill="none" stroke="black" d="M169,-1516.19C169,-1483.07 169,-1414.18 169,-1374.96"/>
<polygon fill="black" stroke="black" points="172.5,-1374.74 169,-1364.74 165.5,-1374.74 172.5,-1374.74"/>
</g>
<!-- try_to_free_pages -->
<g id="node13" class="node"><title>try_to_free_pages</title>
<ellipse fill="none" stroke="black" cx="1739" cy="-1648" rx="739.134" ry="43.8406"/>
<text text-anchor="middle" x="1739" y="-1662.4" font-family="Times Roman,serif" font-size="14.00">try_to_free_pages </text>
<text text-anchor="middle" x="1739" y="-1644.4" font-family="Times Roman,serif" font-size="14.00"> 		 &#160;&#160;&#160;&#160;&#160;&#160;scan_control = [gfp_mask = memalloc_noio_flags, may_unmap, may_swap, nr_to_reclaim = SWAP_CLUSTER_MAX, order=passed arg </text>
<text text-anchor="middle" x="1739" y="-1626.4" font-family="Times Roman,serif" font-size="14.00"> 				 &#160;&#160;&#160;&#160;&#160;&#160;sc.priority = DEF_PRIORITY</text>
</g>
<!-- do_try_to_free_pages -->
<g id="node17" class="node"><title>do_try_to_free_pages</title>
<ellipse fill="none" stroke="black" cx="1746" cy="-1535" rx="239.209" ry="31.1127"/>
<text text-anchor="middle" x="1746" y="-1540.4" font-family="Times Roman,serif" font-size="14.00">do_try_to_free_pages </text>
<text text-anchor="middle" x="1746" y="-1522.4" font-family="Times Roman,serif" font-size="14.00"> 			 &#160;&#160;&#160;&#160;loops while sc.priority &gt;= 0</text>
</g>
<!-- try_to_free_pages&#45;&gt;do_try_to_free_pages -->
<g id="edge31" class="edge"><title>try_to_free_pages&#45;&gt;do_try_to_free_pages</title>
<path fill="none" stroke="black" d="M1741.73,-1603.99C1742.29,-1594.9 1742.88,-1585.36 1743.44,-1576.37"/>
<polygon fill="black" stroke="black" points="1746.95,-1576.33 1744.07,-1566.13 1739.96,-1575.9 1746.95,-1576.33"/>
</g>
<!-- free_more_memory -->
<g id="node14" class="node"><title>free_more_memory</title>
<polygon fill="none" stroke="black" points="1070.5,-1731 1070.5,-1827 1615.5,-1827 1615.5,-1731 1070.5,-1731"/>
<text text-anchor="middle" x="1343" y="-1810.4" font-family="Times Roman,serif" font-size="14.00">free_more_memory </text>
<text text-anchor="middle" x="1343" y="-1792.4" font-family="Times Roman,serif" font-size="14.00"> 			 for each node select the zonelist and do a try_to_free_pages</text>
<polyline fill="none" stroke="black" points="1070.5,-1783 1615.5,-1783 "/>
<text text-anchor="middle" x="1343" y="-1766.4" font-family="Times Roman,serif" font-size="14.00">wakeup_flusher_threads 1024 pages</text>
<polyline fill="none" stroke="black" points="1070.5,-1757 1615.5,-1757 "/>
<text text-anchor="middle" x="1343" y="-1740.4" font-family="Times Roman,serif" font-size="14.00">try_to_free_pages</text>
</g>
<!-- free_more_memory&#45;&gt;try_to_free_pages -->
<g id="edge30" class="edge"><title>free_more_memory:try_to_free_pages&#45;&gt;try_to_free_pages</title>
<path fill="none" stroke="black" d="M1617,-1744C1649.83,-1744 1679.04,-1722.26 1700.64,-1699.48"/>
<polygon fill="black" stroke="black" points="1703.24,-1701.82 1707.38,-1692.07 1698.07,-1697.11 1703.24,-1701.82"/>
</g>
<!-- wakeup_flusher_threads -->
<g id="node72" class="node"><title>wakeup_flusher_threads</title>
<ellipse fill="none" stroke="black" cx="972" cy="-1067" rx="131.022" ry="18.3848"/>
<text text-anchor="middle" x="972" y="-1063.4" font-family="Times Roman,serif" font-size="14.00">wakeup_flusher_threads</text>
</g>
<!-- free_more_memory&#45;&gt;wakeup_flusher_threads -->
<g id="edge73" class="edge"><title>free_more_memory:wakeup_flusher_threads&#45;&gt;wakeup_flusher_threads</title>
<path fill="none" stroke="black" d="M1069,-1770C999.728,-1770 972,-1717.27 972,-1648 972,-1648 972,-1648 972,-1346 972,-1254.62 972,-1146.4 972,-1095.79"/>
<polygon fill="black" stroke="black" points="975.5,-1095.61 972,-1085.61 968.5,-1095.61 975.5,-1095.61"/>
</g>
<!-- alloc_page_buffers -->
<g id="node15" class="node"><title>alloc_page_buffers</title>
<ellipse fill="none" stroke="black" cx="1165" cy="-1906" rx="258.801" ry="31.1127"/>
<text text-anchor="middle" x="1165" y="-1911.4" font-family="Times Roman,serif" font-size="14.00">alloc_page_buffers</text>
<text text-anchor="middle" x="1165" y="-1893.4" font-family="Times Roman,serif" font-size="14.00"> 			 &#160;called on alloc buffer head failure </text>
</g>
<!-- alloc_page_buffers&#45;&gt;free_more_memory -->
<g id="edge40" class="edge"><title>alloc_page_buffers&#45;&gt;free_more_memory</title>
<path fill="none" stroke="black" d="M1208.09,-1875.26C1225.9,-1862.55 1247.1,-1847.42 1267.35,-1832.98"/>
<polygon fill="black" stroke="black" points="1269.55,-1835.71 1275.65,-1827.05 1265.48,-1830.01 1269.55,-1835.71"/>
</g>
<!-- do_try_to_free_pages_1 -->
<g id="node18" class="node"><title>do_try_to_free_pages_1</title>
<polygon fill="none" stroke="black" points="1653,-1307 1653,-1385 1839,-1385 1839,-1307 1653,-1307"/>
<text text-anchor="middle" x="1746" y="-1368.4" font-family="Times Roman,serif" font-size="14.00">shrink_zones</text>
<polyline fill="none" stroke="black" points="1653,-1359 1839,-1359 "/>
<text text-anchor="middle" x="1746" y="-1342.4" font-family="Times Roman,serif" font-size="14.00">shrink_slab</text>
<polyline fill="none" stroke="black" points="1653,-1333 1839,-1333 "/>
<text text-anchor="middle" x="1746" y="-1316.4" font-family="Times Roman,serif" font-size="14.00">wakeup_flusher_threads</text>
</g>
<!-- do_try_to_free_pages&#45;&gt;do_try_to_free_pages_1 -->
<g id="edge32" class="edge"><title>do_try_to_free_pages&#45;&gt;do_try_to_free_pages_1</title>
<path fill="none" stroke="black" d="M1746,-1503.79C1746,-1474.34 1746,-1429.7 1746,-1395.41"/>
<polygon fill="black" stroke="black" points="1749.5,-1395.13 1746,-1385.13 1742.5,-1395.13 1749.5,-1395.13"/>
</g>
<!-- shrink_zones -->
<g id="node19" class="node"><title>shrink_zones</title>
<polygon fill="none" stroke="black" points="1630.5,-1028 1630.5,-1106 1861.5,-1106 1861.5,-1028 1630.5,-1028"/>
<text text-anchor="middle" x="1746" y="-1089.4" font-family="Times Roman,serif" font-size="14.00">shrink_zones</text>
<polyline fill="none" stroke="black" points="1630.5,-1080 1861.5,-1080 "/>
<text text-anchor="middle" x="1746" y="-1063.4" font-family="Times Roman,serif" font-size="14.00">mem_cgroup_soft_limit_reclaim</text>
<polyline fill="none" stroke="black" points="1630.5,-1054 1861.5,-1054 "/>
<text text-anchor="middle" x="1746" y="-1037.4" font-family="Times Roman,serif" font-size="14.00">shrink_zone</text>
</g>
<!-- do_try_to_free_pages_1&#45;&gt;shrink_zones -->
<g id="edge34" class="edge"><title>do_try_to_free_pages_1:shrink_zones&#45;&gt;shrink_zones</title>
<path fill="none" stroke="black" d="M1746,-1387C1746,-1397.34 1831.77,-1392.39 1839,-1385 1911.68,-1310.74 1835.47,-1182.92 1784.31,-1114.12"/>
<polygon fill="black" stroke="black" points="1787.03,-1111.91 1778.21,-1106.03 1781.44,-1116.12 1787.03,-1111.91"/>
</g>
<!-- do_try_to_free_pages_1&#45;&gt;shrink_slab -->
<g id="edge38" class="edge"><title>do_try_to_free_pages_1:shrink_slab&#45;&gt;shrink_slab</title>
<path fill="none" stroke="black" d="M1840,-1346C2020.33,-1346 1785.54,-1078.37 1908,-946 1978.42,-869.874 2036.33,-923.907 2135,-892 2145.06,-888.748 2155.66,-884.739 2165.63,-880.697"/>
<polygon fill="black" stroke="black" points="2167.05,-883.896 2174.95,-876.835 2164.37,-877.43 2167.05,-883.896"/>
</g>
<!-- do_try_to_free_pages_1&#45;&gt;wakeup_flusher_threads -->
<g id="edge76" class="edge"><title>do_try_to_free_pages_1:wakeup_flusher_threads&#45;&gt;wakeup_flusher_threads</title>
<path fill="none" stroke="black" d="M1652,-1320C1390.6,-1320 1106.16,-1153.75 1007.8,-1090.78"/>
<polygon fill="black" stroke="black" points="1009.44,-1087.67 999.137,-1085.2 1005.64,-1093.56 1009.44,-1087.67"/>
</g>
<!-- shrink_zones&#45;&gt;shrink_zone -->
<g id="edge36" class="edge"><title>shrink_zones:shrink_zone&#45;&gt;shrink_zone</title>
<path fill="none" stroke="black" d="M1746,-1028C1746,-962.615 1809.07,-918.808 1866.24,-892.529"/>
<polygon fill="black" stroke="black" points="1868.02,-895.57 1875.72,-888.302 1865.17,-889.177 1868.02,-895.57"/>
</g>
<!-- shrink_page_list -->
<g id="node20" class="node"><title>shrink_page_list</title>
<polygon fill="none" stroke="black" points="2682,-186 2682,-290 2810,-290 2810,-186 2682,-186"/>
<text text-anchor="middle" x="2746" y="-273.4" font-family="Times Roman,serif" font-size="14.00">shrink_page_list</text>
<polyline fill="none" stroke="black" points="2682,-264 2810,-264 "/>
<text text-anchor="middle" x="2746" y="-247.4" font-family="Times Roman,serif" font-size="14.00">add_to_swap</text>
<polyline fill="none" stroke="black" points="2682,-238 2810,-238 "/>
<text text-anchor="middle" x="2746" y="-221.4" font-family="Times Roman,serif" font-size="14.00">try_to_unmap</text>
<polyline fill="none" stroke="black" points="2682,-212 2810,-212 "/>
<text text-anchor="middle" x="2746" y="-195.4" font-family="Times Roman,serif" font-size="14.00">pageout</text>
</g>
<!-- writepage -->
<g id="node23" class="node"><title>writepage</title>
<ellipse fill="none" stroke="black" cx="2746" cy="-95" rx="149.2" ry="18.3848"/>
<text text-anchor="middle" x="2746" y="-91.4" font-family="Times Roman,serif" font-size="14.00">mapping&#45;&gt;aops&#45;&gt;writepage</text>
</g>
<!-- shrink_page_list&#45;&gt;writepage -->
<g id="edge62" class="edge"><title>shrink_page_list:page_out&#45;&gt;writepage</title>
<path fill="none" stroke="black" d="M2746,-186C2746,-165.231 2746,-141.796 2746,-123.909"/>
<polygon fill="black" stroke="black" points="2749.5,-123.823 2746,-113.823 2742.5,-123.823 2749.5,-123.823"/>
</g>
<!-- __zone_reclaim -->
<g id="node21" class="node"><title>__zone_reclaim</title>
<polygon fill="none" stroke="black" points="1916.5,-947 1916.5,-1187 2437.5,-1187 2437.5,-947 1916.5,-947"/>
<text text-anchor="middle" x="2177" y="-1170.4" font-family="Times Roman,serif" font-size="14.00">__zone_reclaim </text>
<text text-anchor="middle" x="2177" y="-1152.4" font-family="Times Roman,serif" font-size="14.00"> scan_control = </text>
<text text-anchor="middle" x="2177" y="-1134.4" font-family="Times Roman,serif" font-size="14.00">		.may_writepage = !!(zone_reclaim_mode &amp; RECLAIM_WRITE),</text>
<text text-anchor="middle" x="2177" y="-1116.4" font-family="Times Roman,serif" font-size="14.00">		.may_unmap = !!(zone_reclaim_mode &amp; RECLAIM_SWAP),</text>
<text text-anchor="middle" x="2177" y="-1098.4" font-family="Times Roman,serif" font-size="14.00">		.may_swap = 1,</text>
<text text-anchor="middle" x="2177" y="-1080.4" font-family="Times Roman,serif" font-size="14.00">		.nr_to_reclaim = max(nr_pages, SWAP_CLUSTER_MAX),</text>
<text text-anchor="middle" x="2177" y="-1062.4" font-family="Times Roman,serif" font-size="14.00">		.gfp_mask = (gfp_mask = memalloc_noio_flags(gfp_mask)),</text>
<text text-anchor="middle" x="2177" y="-1044.4" font-family="Times Roman,serif" font-size="14.00">		.order = order,</text>
<text text-anchor="middle" x="2177" y="-1026.4" font-family="Times Roman,serif" font-size="14.00">		.priority = ZONE_RECLAIM_PRIORITY,</text>
<text text-anchor="middle" x="2177" y="-1008.4" font-family="Times Roman,serif" font-size="14.00">		</text>
<polyline fill="none" stroke="black" points="1916.5,-999 2437.5,-999 "/>
<text text-anchor="middle" x="2177" y="-982.4" font-family="Times Roman,serif" font-size="14.00">shrink_zone</text>
<polyline fill="none" stroke="black" points="1916.5,-973 2437.5,-973 "/>
<text text-anchor="middle" x="2177" y="-956.4" font-family="Times Roman,serif" font-size="14.00">shrink_slab</text>
</g>
<!-- __zone_reclaim&#45;&gt;shrink_zone -->
<g id="edge58" class="edge"><title>__zone_reclaim:shrink_zone&#45;&gt;shrink_zone</title>
<path fill="none" stroke="black" d="M1915,-986C1878.33,-986 1903.99,-937.074 1928.33,-900.441"/>
<polygon fill="black" stroke="black" points="1931.41,-902.139 1934.13,-891.899 1925.62,-898.208 1931.41,-902.139"/>
</g>
<!-- __zone_reclaim&#45;&gt;shrink_slab -->
<g id="edge60" class="edge"><title>__zone_reclaim:shrink_slab&#45;&gt;shrink_slab</title>
<path fill="none" stroke="black" d="M2177,-947C2177,-926.413 2185.34,-904.783 2193.64,-888.366"/>
<polygon fill="black" stroke="black" points="2196.83,-889.819 2198.46,-879.349 2190.66,-886.521 2196.83,-889.819"/>
</g>
<!-- __alloc_pages_direct_reclaim -->
<g id="node22" class="node"><title>__alloc_pages_direct_reclaim</title>
<polygon fill="none" stroke="black" points="2136,-1867 2136,-1945 2348,-1945 2348,-1867 2136,-1867"/>
<text text-anchor="middle" x="2242" y="-1928.4" font-family="Times Roman,serif" font-size="14.00">__alloc_pages_direct_reclaim</text>
<polyline fill="none" stroke="black" points="2136,-1919 2348,-1919 "/>
<text text-anchor="middle" x="2242" y="-1902.4" font-family="Times Roman,serif" font-size="14.00">__perform_reclaim</text>
<polyline fill="none" stroke="black" points="2136,-1893 2348,-1893 "/>
<text text-anchor="middle" x="2242" y="-1876.4" font-family="Times Roman,serif" font-size="14.00">get_pages_from_free_list</text>
</g>
<!-- __perform_reclaim -->
<g id="node52" class="node"><title>__perform_reclaim</title>
<ellipse fill="none" stroke="black" cx="2146" cy="-1779" rx="99.9096" ry="18.3848"/>
<text text-anchor="middle" x="2146" y="-1775.4" font-family="Times Roman,serif" font-size="14.00">__perform_reclaim</text>
</g>
<!-- __alloc_pages_direct_reclaim&#45;&gt;__perform_reclaim -->
<g id="edge44" class="edge"><title>__alloc_pages_direct_reclaim:__perform_reclaim&#45;&gt;__perform_reclaim</title>
<path fill="none" stroke="black" d="M2135,-1906C2095.49,-1906 2116.44,-1844.22 2132.74,-1806.84"/>
<polygon fill="black" stroke="black" points="2136.04,-1808.02 2136.95,-1797.47 2129.66,-1805.16 2136.04,-1808.02"/>
</g>
<!-- get_page_from_free_list -->
<g id="node54" class="node"><title>get_page_from_free_list</title>
<ellipse fill="none" stroke="black" cx="2574" cy="-1535" rx="126.78" ry="18.3848"/>
<text text-anchor="middle" x="2574" y="-1531.4" font-family="Times Roman,serif" font-size="14.00">get_page_from_free_list</text>
</g>
<!-- __alloc_pages_direct_reclaim&#45;&gt;get_page_from_free_list -->
<g id="edge47" class="edge"><title>__alloc_pages_direct_reclaim:get_pages_from_free_list&#45;&gt;get_page_from_free_list</title>
<path fill="none" stroke="black" d="M2349,-1880C2356.17,-1880 2351.93,-1871.07 2357,-1866 2467.04,-1755.88 2582.91,-1826.67 2661,-1692 2680.62,-1658.17 2678.02,-1639.22 2661,-1604 2651.86,-1585.08 2634.73,-1569.76 2618.07,-1558.41"/>
<polygon fill="black" stroke="black" points="2619.75,-1555.33 2609.45,-1552.84 2615.95,-1561.2 2619.75,-1555.33"/>
</g>
<!-- bdi_writeback_workfn -->
<g id="node24" class="node"><title>bdi_writeback_workfn</title>
<ellipse fill="none" stroke="black" cx="650" cy="-861" rx="217.789" ry="31.1127"/>
<text text-anchor="middle" x="650" y="-866.4" font-family="Times Roman,serif" font-size="14.00">bdi_writeback_workfn </text>
<text text-anchor="middle" x="650" y="-848.4" font-family="Times Roman,serif" font-size="14.00"> default bdi writeback workqueue callback</text>
</g>
<!-- wb_do_writeback -->
<g id="node66" class="node"><title>wb_do_writeback</title>
<ellipse fill="none" stroke="black" cx="650" cy="-726" rx="96.8736" ry="18.3848"/>
<text text-anchor="middle" x="650" y="-722.4" font-family="Times Roman,serif" font-size="14.00">wb_do_writeback</text>
</g>
<!-- bdi_writeback_workfn&#45;&gt;wb_do_writeback -->
<g id="edge64" class="edge"><title>bdi_writeback_workfn&#45;&gt;wb_do_writeback</title>
<path fill="none" stroke="black" d="M650,-829.689C650,-807.064 650,-776.738 650,-754.73"/>
<polygon fill="black" stroke="black" points="653.5,-754.665 650,-744.665 646.5,-754.665 653.5,-754.665"/>
</g>
<!-- writeback_sb_inodes -->
<g id="node25" class="node"><title>writeback_sb_inodes</title>
<polygon fill="none" stroke="black" points="424,-153 424,-323 864,-323 864,-153 424,-153"/>
<text text-anchor="middle" x="644" y="-306.4" font-family="Times Roman,serif" font-size="14.00">writeback_sb_inodes </text>
<text text-anchor="middle" x="644" y="-288.4" font-family="Times Roman,serif" font-size="14.00"> writeback_control wbc = </text>
<text text-anchor="middle" x="644" y="-270.4" font-family="Times Roman,serif" font-size="14.00">		.sync_mode		= work.sync_mode, </text>
<text text-anchor="middle" x="644" y="-252.4" font-family="Times Roman,serif" font-size="14.00">		.tagged_writepages	= work.tagged_writepages, </text>
<text text-anchor="middle" x="644" y="-234.4" font-family="Times Roman,serif" font-size="14.00">		.for_kupdate		= work.for_kupdate, </text>
<text text-anchor="middle" x="644" y="-216.4" font-family="Times Roman,serif" font-size="14.00">		.for_background		= work.for_background, </text>
<text text-anchor="middle" x="644" y="-198.4" font-family="Times Roman,serif" font-size="14.00">		.range_cyclic		= work.range_cyclic, </text>
<text text-anchor="middle" x="644" y="-180.4" font-family="Times Roman,serif" font-size="14.00">		.range_start		= 0, </text>
<text text-anchor="middle" x="644" y="-162.4" font-family="Times Roman,serif" font-size="14.00">		.range_end		= LLONG_MAX</text>
</g>
<!-- __writeback_single_inode -->
<g id="node70" class="node"><title>__writeback_single_inode</title>
<ellipse fill="none" stroke="black" cx="644" cy="-95" rx="135.765" ry="18.3848"/>
<text text-anchor="middle" x="644" y="-91.4" font-family="Times Roman,serif" font-size="14.00">__writeback_single_inode</text>
</g>
<!-- writeback_sb_inodes&#45;&gt;__writeback_single_inode -->
<g id="edge70" class="edge"><title>writeback_sb_inodes&#45;&gt;__writeback_single_inode</title>
<path fill="none" stroke="black" d="M644,-152.751C644,-142.406 644,-132.459 644,-123.823"/>
<polygon fill="black" stroke="black" points="647.5,-123.652 644,-113.652 640.5,-123.652 647.5,-123.652"/>
</g>
<!-- do_writepages -->
<g id="node26" class="node"><title>do_writepages</title>
<ellipse fill="none" stroke="black" cx="644" cy="-19" rx="154.149" ry="18.3848"/>
<text text-anchor="middle" x="644" y="-15.4" font-family="Times Roman,serif" font-size="14.00">mapping&#45;&gt;aops&#45;&gt;writepages</text>
</g>
<!-- writeback_reason -->
<g id="node27" class="node"><title>writeback_reason</title>
<ellipse fill="none" stroke="black" cx="650" cy="-1346" rx="294.156" ry="120.208"/>
<text text-anchor="middle" x="650" y="-1414.4" font-family="Times Roman,serif" font-size="14.00">Different reason for writeback </text>
<text text-anchor="middle" x="650" y="-1396.4" font-family="Times Roman,serif" font-size="14.00"> 				WB_REASON_BACKGROUND, </text>
<text text-anchor="middle" x="650" y="-1378.4" font-family="Times Roman,serif" font-size="14.00">				WB_REASON_TRY_TO_FREE_PAGES,</text>
<text text-anchor="middle" x="650" y="-1360.4" font-family="Times Roman,serif" font-size="14.00">				WB_REASON_SYNC,</text>
<text text-anchor="middle" x="650" y="-1342.4" font-family="Times Roman,serif" font-size="14.00">				WB_REASON_PERIODIC,</text>
<text text-anchor="middle" x="650" y="-1324.4" font-family="Times Roman,serif" font-size="14.00">				WB_REASON_LAPTOP_TIMER,</text>
<text text-anchor="middle" x="650" y="-1306.4" font-family="Times Roman,serif" font-size="14.00">				WB_REASON_FREE_MORE_MEM,</text>
<text text-anchor="middle" x="650" y="-1288.4" font-family="Times Roman,serif" font-size="14.00">				WB_REASON_FS_FREE_SPACE,</text>
<text text-anchor="middle" x="650" y="-1270.4" font-family="Times Roman,serif" font-size="14.00">				WB_REASON_FORKER_THREAD</text>
</g>
<!-- bdi_start_writeback -->
<g id="node78" class="node"><title>bdi_start_writeback</title>
<ellipse fill="none" stroke="black" cx="650" cy="-1067" rx="108.187" ry="18.3848"/>
<text text-anchor="middle" x="650" y="-1063.4" font-family="Times Roman,serif" font-size="14.00">bdi_start_writeback</text>
</g>
<!-- writeback_reason&#45;&gt;bdi_start_writeback -->
<g id="edge82" class="edge"><title>writeback_reason&#45;&gt;bdi_start_writeback</title>
<path fill="none" stroke="black" d="M650,-1225.65C650,-1177.63 650,-1126.52 650,-1095.68"/>
<polygon fill="black" stroke="black" points="653.5,-1095.65 650,-1085.65 646.5,-1095.65 653.5,-1095.65"/>
</g>
<!-- shrink_inactive_list&#45;&gt;shrink_page_list -->
<g id="edge52" class="edge"><title>shrink_inactive_list&#45;&gt;shrink_page_list</title>
<path fill="none" stroke="black" d="M2620.72,-396.392C2639.05,-373.22 2671.26,-332.497 2698.43,-298.146"/>
<polygon fill="black" stroke="black" points="2701.4,-300.034 2704.85,-290.02 2695.91,-295.692 2701.4,-300.034"/>
</g>
<!-- shrink_slab&#45;&gt;shrinker -->
<g id="edge24" class="edge"><title>shrink_slab&#45;&gt;shrinker</title>
<path fill="none" stroke="black" d="M2210.42,-842.229C2210.92,-819.56 2211.77,-781.191 2212.36,-754.776"/>
<polygon fill="black" stroke="black" points="2215.86,-754.687 2212.59,-744.612 2208.87,-754.531 2215.86,-754.687"/>
</g>
<!-- __getblk_slow -->
<g id="node42" class="node"><title>__getblk_slow</title>
<ellipse fill="none" stroke="black" cx="1522" cy="-1906" rx="79.9031" ry="18.3848"/>
<text text-anchor="middle" x="1522" y="-1902.4" font-family="Times Roman,serif" font-size="14.00">__getblk_slow</text>
</g>
<!-- __getblk_slow&#45;&gt;free_more_memory -->
<g id="edge28" class="edge"><title>__getblk_slow&#45;&gt;free_more_memory</title>
<path fill="none" stroke="black" d="M1497.11,-1888.34C1476.83,-1873.95 1447.06,-1852.83 1419.09,-1832.98"/>
<polygon fill="black" stroke="black" points="1421.04,-1830.08 1410.86,-1827.15 1416.99,-1835.79 1421.04,-1830.08"/>
</g>
<!-- __alloc_pages_slowpath -->
<g id="node49" class="node"><title>__alloc_pages_slowpath</title>
<ellipse fill="none" stroke="black" cx="2242" cy="-2006" rx="126.78" ry="18.3848"/>
<text text-anchor="middle" x="2242" y="-2002.4" font-family="Times Roman,serif" font-size="14.00">__alloc_pages_slowpath</text>
</g>
<!-- __alloc_pages_slowpath&#45;&gt;__alloc_pages_direct_reclaim -->
<g id="edge42" class="edge"><title>__alloc_pages_slowpath&#45;&gt;__alloc_pages_direct_reclaim</title>
<path fill="none" stroke="black" d="M2242,-1987.19C2242,-1978.09 2242,-1966.7 2242,-1955.36"/>
<polygon fill="black" stroke="black" points="2245.5,-1955.02 2242,-1945.02 2238.5,-1955.02 2245.5,-1955.02"/>
</g>
<!-- __perform_reclaim&#45;&gt;try_to_free_pages -->
<g id="edge45" class="edge"><title>__perform_reclaim&#45;&gt;try_to_free_pages</title>
<path fill="none" stroke="black" d="M2096.09,-1762.94C2043.38,-1745.97 1957.78,-1718.42 1883.61,-1694.55"/>
<polygon fill="black" stroke="black" points="1884.29,-1691.09 1873.69,-1691.35 1882.14,-1697.75 1884.29,-1691.09"/>
</g>
<!-- zone_reclaim -->
<g id="node61" class="node"><title>zone_reclaim</title>
<ellipse fill="none" stroke="black" cx="2178" cy="-1346" rx="75.1594" ry="18.3848"/>
<text text-anchor="middle" x="2178" y="-1342.4" font-family="Times Roman,serif" font-size="14.00">zone_reclaim</text>
</g>
<!-- get_page_from_free_list&#45;&gt;zone_reclaim -->
<g id="edge55" class="edge"><title>get_page_from_free_list&#45;&gt;zone_reclaim</title>
<path fill="none" stroke="black" d="M2481.79,-1522.17C2403.21,-1509.88 2297.52,-1489.73 2262,-1466 2227.95,-1443.26 2203.5,-1401.65 2190.05,-1373.91"/>
<polygon fill="black" stroke="black" points="2193.16,-1372.3 2185.75,-1364.73 2186.82,-1375.27 2193.16,-1372.3"/>
</g>
<!-- alloc_contig_range -->
<g id="node55" class="node"><title>alloc_contig_range</title>
<ellipse fill="none" stroke="black" cx="2886" cy="-564" rx="101.823" ry="18.3848"/>
<text text-anchor="middle" x="2886" y="-560.4" font-family="Times Roman,serif" font-size="14.00">alloc_contig_range</text>
</g>
<!-- reclaim_clean_pages_from_list -->
<g id="node57" class="node"><title>reclaim_clean_pages_from_list</title>
<ellipse fill="none" stroke="black" cx="2886" cy="-415" rx="157.184" ry="18.3848"/>
<text text-anchor="middle" x="2886" y="-411.4" font-family="Times Roman,serif" font-size="14.00">reclaim_clean_pages_from_list</text>
</g>
<!-- alloc_contig_range&#45;&gt;reclaim_clean_pages_from_list -->
<g id="edge49" class="edge"><title>alloc_contig_range&#45;&gt;reclaim_clean_pages_from_list</title>
<path fill="none" stroke="black" d="M2886,-545.43C2886,-520.001 2886,-474.083 2886,-444.073"/>
<polygon fill="black" stroke="black" points="2889.5,-443.804 2886,-433.804 2882.5,-443.804 2889.5,-443.804"/>
</g>
<!-- reclaim_clean_pages_from_list&#45;&gt;shrink_page_list -->
<g id="edge50" class="edge"><title>reclaim_clean_pages_from_list&#45;&gt;shrink_page_list</title>
<path fill="none" stroke="black" d="M2871.28,-396.392C2852.95,-373.22 2820.74,-332.497 2793.57,-298.146"/>
<polygon fill="black" stroke="black" points="2796.09,-295.692 2787.15,-290.02 2790.6,-300.034 2796.09,-295.692"/>
</g>
<!-- __alloc_pages -->
<g id="node59" class="node"><title>__alloc_pages</title>
<ellipse fill="none" stroke="black" cx="2574" cy="-1648" rx="77.7817" ry="18.3848"/>
<text text-anchor="middle" x="2574" y="-1644.4" font-family="Times Roman,serif" font-size="14.00">__alloc_pages</text>
</g>
<!-- __alloc_pages&#45;&gt;get_page_from_free_list -->
<g id="edge54" class="edge"><title>__alloc_pages&#45;&gt;get_page_from_free_list</title>
<path fill="none" stroke="black" d="M2574,-1629.34C2574,-1611.51 2574,-1584.38 2574,-1563.78"/>
<polygon fill="black" stroke="black" points="2577.5,-1563.69 2574,-1553.69 2570.5,-1563.69 2577.5,-1563.69"/>
</g>
<!-- zone_reclaim&#45;&gt;__zone_reclaim -->
<g id="edge56" class="edge"><title>zone_reclaim&#45;&gt;__zone_reclaim</title>
<path fill="none" stroke="black" d="M2177.93,-1327.26C2177.84,-1300.23 2177.65,-1247.96 2177.47,-1197.31"/>
<polygon fill="black" stroke="black" points="2180.97,-1197.2 2177.43,-1187.21 2173.97,-1197.23 2180.97,-1197.2"/>
</g>
<!-- wb_writeback -->
<g id="node67" class="node"><title>wb_writeback</title>
<ellipse fill="none" stroke="black" cx="650" cy="-564" rx="79.9031" ry="18.3848"/>
<text text-anchor="middle" x="650" y="-560.4" font-family="Times Roman,serif" font-size="14.00">wb_writeback</text>
</g>
<!-- wb_do_writeback&#45;&gt;wb_writeback -->
<g id="edge65" class="edge"><title>wb_do_writeback&#45;&gt;wb_writeback</title>
<path fill="none" stroke="black" d="M650,-707.417C650,-679.416 650,-626.165 650,-593.02"/>
<polygon fill="black" stroke="black" points="653.5,-592.616 650,-582.616 646.5,-592.616 653.5,-592.616"/>
</g>
<!-- wb_writeback&#45;&gt;writeback_sb_inodes -->
<g id="edge66" class="edge"><title>wb_writeback&#45;&gt;writeback_sb_inodes</title>
<path fill="none" stroke="black" d="M655.058,-545.415C660.004,-526.206 667.19,-495.265 670,-468 674.83,-421.137 674.86,-408.86 670,-362 669.023,-352.582 667.64,-342.825 666.014,-333.11"/>
<polygon fill="black" stroke="black" points="669.418,-332.259 664.239,-323.016 662.524,-333.471 669.418,-332.259"/>
</g>
<!-- __writeback_inodes_wb -->
<g id="node69" class="node"><title>__writeback_inodes_wb</title>
<ellipse fill="none" stroke="black" cx="534" cy="-415" rx="126.78" ry="18.3848"/>
<text text-anchor="middle" x="534" y="-411.4" font-family="Times Roman,serif" font-size="14.00">__writeback_inodes_wb</text>
</g>
<!-- wb_writeback&#45;&gt;__writeback_inodes_wb -->
<g id="edge68" class="edge"><title>wb_writeback&#45;&gt;__writeback_inodes_wb</title>
<path fill="none" stroke="black" d="M635.776,-545.73C615.426,-519.59 577.886,-471.371 554.527,-441.366"/>
<polygon fill="black" stroke="black" points="557.245,-439.16 548.34,-433.42 551.722,-443.461 557.245,-439.16"/>
</g>
<!-- __writeback_inodes_wb&#45;&gt;writeback_sb_inodes -->
<g id="edge69" class="edge"><title>__writeback_inodes_wb&#45;&gt;writeback_sb_inodes</title>
<path fill="none" stroke="black" d="M545.564,-396.392C555.383,-380.592 570.274,-356.633 585.522,-332.097"/>
<polygon fill="black" stroke="black" points="588.617,-333.747 590.923,-323.406 582.671,-330.052 588.617,-333.747"/>
</g>
<!-- __writeback_single_inode&#45;&gt;do_writepages -->
<g id="edge71" class="edge"><title>__writeback_single_inode&#45;&gt;do_writepages</title>
<path fill="none" stroke="black" d="M644,-76.2135C644,-67.6543 644,-57.3303 644,-47.8218"/>
<polygon fill="black" stroke="black" points="647.5,-47.5704 644,-37.5704 640.5,-47.5705 647.5,-47.5704"/>
</g>
<!-- wakeup_flusher_threads&#45;&gt;bdi_writeback_workfn -->
<g id="edge74" class="edge"><title>wakeup_flusher_threads&#45;&gt;bdi_writeback_workfn</title>
<path fill="none" stroke="black" d="M943.707,-1048.9C890.652,-1014.96 775.336,-941.184 706.029,-896.845"/>
<polygon fill="black" stroke="black" points="707.707,-893.763 697.397,-891.322 703.934,-899.66 707.707,-893.763"/>
</g>
<!-- bdi_start_background_writeback -->
<g id="node76" class="node"><title>bdi_start_background_writeback</title>
<ellipse fill="none" stroke="black" cx="309" cy="-1067" rx="169.205" ry="18.3848"/>
<text text-anchor="middle" x="309" y="-1063.4" font-family="Times Roman,serif" font-size="14.00">bdi_start_background_writeback</text>
</g>
<!-- balance_dirty_pages_ratelimited&#45;&gt;bdi_start_background_writeback -->
<g id="edge79" class="edge"><title>balance_dirty_pages_ratelimited&#45;&gt;bdi_start_background_writeback</title>
<path fill="none" stroke="black" d="M178.403,-1327.26C202.513,-1279.21 266.629,-1151.44 295.074,-1094.75"/>
<polygon fill="black" stroke="black" points="298.281,-1096.17 299.638,-1085.66 292.024,-1093.03 298.281,-1096.17"/>
</g>
<!-- bdi_start_background_writeback&#45;&gt;bdi_writeback_workfn -->
<g id="edge80" class="edge"><title>bdi_start_background_writeback&#45;&gt;bdi_writeback_workfn</title>
<path fill="none" stroke="black" d="M339.261,-1048.72C395.727,-1014.61 518.035,-940.721 591.239,-896.498"/>
<polygon fill="black" stroke="black" points="593.165,-899.423 599.915,-891.257 589.546,-893.432 593.165,-899.423"/>
</g>
<!-- bdi_start_writeback&#45;&gt;bdi_writeback_workfn -->
<g id="edge83" class="edge"><title>bdi_start_writeback&#45;&gt;bdi_writeback_workfn</title>
<path fill="none" stroke="black" d="M650,-1048.36C650,-1015.53 650,-946.695 650,-902.225"/>
<polygon fill="black" stroke="black" points="653.5,-902.03 650,-892.03 646.5,-902.03 653.5,-902.03"/>
</g>
</g>
</svg>
